<?xml version="1.0" encoding="utf-8"?>
<!-- Generator: Adobe Illustrator 17.1.0, SVG Export Plug-In . SVG Version: 6.00 Build 0)  -->
<!DOCTYPE svg PUBLIC "-//W3C//DTD SVG 1.1//EN" "http://www.w3.org/Graphics/SVG/1.1/DTD/svg11.dtd">
<svg version="1.1" id="coffee-cup-24" xmlns="http://www.w3.org/2000/svg" xmlns:xlink="http://www.w3.org/1999/xlink" x="0px"
	 y="0px" viewBox="0 0 1009.9956 1009.9951" enable-background="new 0 0 1009.9956 1009.9951" xml:space="preserve">
<g>
	<path fill="#F4EDE9" d="M1009.9956,504.9951c0,278.9248-226.0752,505-505,505C226.0757,1009.9951,0,783.9199,0,504.9951
		C0,226.0752,226.0757,0,504.9956,0C783.9204,0,1009.9956,226.0752,1009.9956,504.9951z"/>
	<g id="coffee-cup-24-coffee-cup-24">
		<path fill="#7A5742" d="M689.0894,302.6592h-48.7697v-33.5039h-167.501V235.665h-69.6572v33.4903h-33.4902v33.5039h-48.7871
			l-11.5987,69.6435h27.6397l33.5127,402.0224h269.1103l33.5176-402.0224h27.6348L689.0894,302.6592z M388.2817,754.9306
			l-3.9677-47.6035h241.3632l-3.9902,47.6035H388.2817z M360.3774,419.9287l-3.9677-47.626h297.1718l-3.9726,47.626H360.3774z
			 M415.4595,563.6279c0-49.3613,40.1748-89.5361,89.5361-89.5361s89.541,40.1748,89.541,89.5361
			c0,49.3526-40.1797,89.5225-89.541,89.5225S415.4595,612.9805,415.4595,563.6279z M422.561,255.0596h30.8633v14.0957H422.561
			V255.0596z M389.0708,288.5547h231.8545v14.1045H389.0708V288.5547z"/>
		<path fill="#7A5742" d="M573.312,563.6279c0-37.6777-30.6387-68.3437-68.3164-68.3437s-68.3164,30.666-68.3164,68.3437
			c0,37.6777,30.6387,68.3164,68.3164,68.3164S573.312,601.3056,573.312,563.6279z M504.9956,514.6787
			c26.9805,0,48.9219,21.9687,48.9219,48.9492c0,26.9805-21.9414,48.9219-48.9219,48.9219
			c-26.9805,0-48.9443-21.9414-48.9443-48.9219C456.0513,536.6474,478.0151,514.6787,504.9956,514.6787z"/>
		<rect x="496.6255" y="553.9258" fill="#7A5742" width="16.7451" height="19.3857"/>
	</g>
</g>
</svg>
