<?xml version="1.0" encoding="utf-8"?>
<!-- Generator: Adobe Illustrator 17.1.0, SVG Export Plug-In . SVG Version: 6.00 Build 0)  -->
<!DOCTYPE svg PUBLIC "-//W3C//DTD SVG 1.1//EN" "http://www.w3.org/Graphics/SVG/1.1/DTD/svg11.dtd">
<svg version="1.1" id="coffee-cup-1" xmlns="http://www.w3.org/2000/svg" xmlns:xlink="http://www.w3.org/1999/xlink" x="0px"
	 y="0px" viewBox="0 0 1009.9956 1009.9951" enable-background="new 0 0 1009.9956 1009.9951" xml:space="preserve">
<g>
	<path fill="#F4EDE9" d="M1009.9956,504.9951c0,278.9062-226.0752,505-504.9956,505c-278.9019,0-505-226.0938-505-505
		C0,226.0928,226.0981,0,505,0C783.9204,0,1009.9956,226.0928,1009.9956,504.9951z"/>
	<g id="coffee-cup-1-coffee-cup-1">
		<path fill="#7A5742" d="M749.9995,462.5205H739.939h-9.9082h-22.3536c1.1836-15.7188,1.9004-32.419,1.9004-50.4912v-9.8902
			H287.2368v9.8902c0,125.5595,31.5576,191.2402,54.5933,239.1845c14.4765,30.1368,25.9087,53.9434,25.9087,82.8692v9.8994v26.0752
			v4.2676h9.8994h9.8994h221.749h9.8809h9.9082v-4.2676v-26.0752v-9.8994c0-17.8789,4.3847-33.8037,11.1543-50.4902h89.8008h9.9082
			h10.0605c22.1113,0,40.0898-17.9786,40.0898-40.0811V502.6011C790.0894,480.5029,772.1108,462.5205,749.9995,462.5205z
			 M770.2905,643.5117c0,11.1904-9.0918,20.291-20.291,20.291h-0.1523V482.3052h0.1523c11.1992,0,20.291,9.1098,20.291,20.2959
			V643.5117z M307.0889,421.9238h382.6372c-0.2696,18.7178-1.291,35.8086-2.834,51.7461c-61.627,0-315.3379,0-376.9785,0
			C308.3711,457.7324,307.3491,440.6416,307.0889,421.9238z M648.9995,663.8027c1.9277-4.0976,3.9004-8.2578,5.9805-12.5889
			c18.3008-38.0634,41.8926-87.416,50.8769-168.9086h24.1739v181.4975H648.9995z"/>
		<path fill="#7A5742" d="M586.7261,316.7993c7.5859,7.2046,7.9355,11.8853,7.9355,12.3472
			c0.3047,14.7094-9.002,23.6982-13.8535,25.039c-5.2539,1.4571-8.3652,6.9131-6.9043,12.1768
			c1.2285,4.3891,5.2012,7.2676,9.541,7.2676c0.8692,0,1.7755-0.126,2.6447-0.3633c14.3378-3.9722,28.8457-21.7173,28.371-44.5908
			c-0.2246-8.5186-5.246-17.8262-14.123-26.2139c-17.5742-16.75-19.457-24.7661-16.7852-32.9395
			c4.2774-13.0419,13.3516-14.9379,26.7657-13.8217c2.7168,0.229,4.6894,0.3945,6.9218-0.2105
			c5.2637-1.4346,8.375-6.8779,6.9493-12.1543c-1.3184-4.7749-6.0528-7.6846-10.6348-7.2275
			c-0.4395-0.0401-0.959-0.085-1.5781-0.1387c-24.7383-2.1655-40.6094,7.1152-47.2539,27.4111
			C557.6206,285.1606,571.0972,301.9282,586.7261,316.7993z"/>
		<path fill="#7A5742" d="M440.79,329.1553c-0.0493,14.6919-9.6167,23.4433-14.4858,24.6582
			c-5.29,1.3315-8.5269,6.7114-7.1953,12.0244c1.1299,4.4873,5.1601,7.4824,9.5942,7.4824c0.8023,0,1.6006-0.103,2.4116-0.2871
			c14.4229-3.6221,29.3975-20.9995,29.4737-43.8467c0-8.4961-4.7569-17.9331-13.3965-26.5903
			c-17.166-17.1621-18.8521-25.2232-15.9512-33.3511c4.5952-12.9209,13.7774-14.5938,27.0479-13.1274
			c2.7617,0.2915,4.7568,0.5063,7.0117-0.0538c5.29-1.3403,8.5005-6.7251,7.1733-12.0244
			c-1.2192-4.7749-5.7744-7.8232-10.4551-7.438c-0.4262-0.0356-0.9458-0.0893-1.5556-0.1611
			c-24.5415-2.748-40.7129,6.0659-47.8687,26.1602c-7.7065,21.6499,5.3535,38.7402,20.5967,53.9834
			C440.5884,323.9814,440.79,328.6758,440.79,329.1553z"/>
		<path fill="#7A5742" d="M517.4058,329.1465c-0.0723,14.7094-9.6211,23.4609-14.4815,24.667
			c-5.3086,1.3315-8.5317,6.7114-7.2002,12.0107c1.125,4.501,5.1514,7.4961,9.5943,7.4961c0.7885,0,1.601-0.0898,2.4028-0.2871
			c14.4189-3.6133,29.3838-20.9776,29.4736-43.8467c0-8.5181-4.7617-17.9556-13.3965-26.6084
			c-17.1757-17.1128-18.8388-25.1826-15.9287-33.333c4.586-12.9121,13.7139-14.5845,27.0479-13.1274
			c2.7344,0.2915,4.7344,0.5063,6.9844-0.045c5.3085-1.3266,8.5273-6.6977,7.1913-12.0107
			c-1.1836-4.7881-5.7383-7.855-10.4278-7.4605c-0.4394-0.0356-0.9687-0.0893-1.5781-0.1611
			c-24.6445-2.7617-40.7314,6.0884-47.873,26.1602c-7.7295,21.6943,5.3398,38.7763,20.6054,53.997
			C517.1811,323.9726,517.4058,328.6758,517.4058,329.1465z"/>
	</g>
</g>
</svg>
