<?xml version="1.0" encoding="utf-8"?>
<!-- Generator: Adobe Illustrator 17.1.0, SVG Export Plug-In . SVG Version: 6.00 Build 0)  -->
<!DOCTYPE svg PUBLIC "-//W3C//DTD SVG 1.1//EN" "http://www.w3.org/Graphics/SVG/1.1/DTD/svg11.dtd">
<svg version="1.1" id="coffee-cup-9" xmlns="http://www.w3.org/2000/svg" xmlns:xlink="http://www.w3.org/1999/xlink" x="0px"
	 y="0px" viewBox="0 0 1009.9956 1009.9951" enable-background="new 0 0 1009.9956 1009.9951" xml:space="preserve">
<g id="coffee-cup-9-coffee-cup-9">
	<path fill="#F4EDE9" d="M1009.9956,505c0,278.9199-226.0752,504.9951-505,504.9951C226.0757,1009.9951,0,783.9199,0,505
		C0,226.0976,226.0757,0,504.9956,0C783.9204,0,1009.9956,226.0976,1009.9956,505z"/>
	<g id="coffee-cup-9-coffee-cup-9_1_">
		<g id="coffee-cup-9-coffee-cup">
			<path fill="#7A5742" d="M587.2466,608.4072c0,52.625,42.7978,95.4316,95.4228,95.4316c52.5977,0,95.3867-42.8066,95.3867-95.4316
				c0-52.5801-42.789-95.3828-95.3867-95.3828C630.0444,513.0244,587.2466,555.8271,587.2466,608.4072z M625.9819,608.4072
				c0-31.2129,25.4024-56.6426,56.6875-56.6426c31.2217,0,56.669,25.4297,56.669,56.6426c0,31.2754-25.4473,56.7227-56.669,56.7227
				C651.3843,665.1299,625.9819,639.6826,625.9819,608.4072z"/>
			<path fill="#7A5742" d="M560.6157,774.3251C651.519,738.8896,686.48,633.8096,686.48,460.4531H299.27
				c0,173.3565,34.9834,288.0752,125.8555,313.872H560.6157z"/>
		</g>
		<g id="coffee-cup-9-steam">
			<path fill="#7A5742" d="M505.1929,317.6777c7.7246-29.2402,10.6074-58.897-12.2842-81.7036
				c-0.8203-0.8203-1.9639,0.2105-1.502,1.1836c21.1973,48.1909-25.0615,79.8071-24.7568,125.77
				c0.2285,29.94,16.3955,57.4805,48.3437,61.0855c0.6368,0.0669,1.0127-0.5606,1.085-1.085
				c1.3623-14.1362-6.0303-23.2461-11.8271-36.3193C493.8813,363.3315,498.9477,341.3047,505.1929,317.6777z"/>
			<path fill="#7A5742" d="M564.0854,386.6089c-10.3476-23.2774-5.2724-45.3042,0.9327-68.9312
				c7.7296-29.2402,10.6436-58.897-12.248-81.7036c-0.8253-0.8203-1.9639,0.2105-1.5244,1.1836
				c21.1973,48.1909-25.0439,79.8071-24.7393,125.77c0.1973,29.94,16.4004,57.4805,48.3301,61.0855
				c0.6455,0.0669,1.0137-0.5606,1.0674-1.085C577.3022,408.792,569.8784,399.6821,564.0854,386.6089z"/>
			<path fill="#7A5742" d="M445.5962,317.6777c7.707-29.2402,10.6211-58.897-12.2705-81.7036
				c-0.8252-0.8203-1.9414,0.2105-1.5244,1.1836c21.2148,48.1909-25.0215,79.8071-24.7119,125.77
				c0.2148,29.94,16.3906,57.4805,48.3076,61.0855c0.6318,0.0669,1.0263-0.5606,1.0849-1.085
				c1.4033-14.1362-6.0527-23.2461-11.8271-36.3193C434.2895,363.3315,439.3511,341.3047,445.5962,317.6777z"/>
		</g>
	</g>
</g>
</svg>
