<?xml version="1.0" encoding="utf-8"?>
<!-- Generator: Adobe Illustrator 17.1.0, SVG Export Plug-In . SVG Version: 6.00 Build 0)  -->
<!DOCTYPE svg PUBLIC "-//W3C//DTD SVG 1.1//EN" "http://www.w3.org/Graphics/SVG/1.1/DTD/svg11.dtd">
<svg version="1.1" id="coffee-cup-4" xmlns="http://www.w3.org/2000/svg" xmlns:xlink="http://www.w3.org/1999/xlink" x="0px"
	 y="0px" viewBox="0 0 1009.9956 1009.9951" enable-background="new 0 0 1009.9956 1009.9951" xml:space="preserve">
<g>
	<path fill="#F4EDE9" d="M1009.9956,504.9951c0,278.9248-226.0752,505-504.9775,505c-278.92,0-505.0181-226.0752-505.0181-505
		C0,226.0976,226.0981,0,505.0181,0C783.9204,0,1009.9956,226.0976,1009.9956,504.9951z"/>
	<g id="coffee-cup-4-coffee-cup-4">
		<path fill="#7A5742" d="M774.3354,618.7812L774.3354,618.7812c0,23.502-19.0185,42.5557-42.5293,42.5557h-453.621
			c-23.4834,0-42.5108-42.5557-42.5108-42.5557H774.3354L774.3354,618.7812z"/>
		<path fill="#7A5742" d="M630.1782,554.3926l-2.501,12.5615H379.9517c-0.5606-3.918-1.1524-8.1231-1.7754-12.5615H630.1782
			L630.1782,554.3926z M665.3638,348.6533c0,0,85.792,14.3643,81.8466,103.9365c-3.9003,88.3252-113.0419,81.8428-113.0419,81.8428
			l-0.502,2.5732H375.7642c-8.4463-61.7978-19.462-152.2529-16.9873-188.3525H665.3638L665.3638,348.6533z M641.9878,499.3418
			c0,0,72.7461,9.0967,72.7461-50.6524c0-59.749-59.7715-66.25-59.7715-66.25L641.9878,499.3418L641.9878,499.3418z
			 M382.5073,584.3496c1.3897,9.4687,2.2549,15.0283,2.2549,15.0283h236.4404l2.9951-15.0283H382.5073L382.5073,584.3496z"/>
	</g>
</g>
</svg>
