<?xml version="1.0" encoding="utf-8"?>
<!-- Generator: Adobe Illustrator 17.1.0, SVG Export Plug-In . SVG Version: 6.00 Build 0)  -->
<!DOCTYPE svg PUBLIC "-//W3C//DTD SVG 1.1//EN" "http://www.w3.org/Graphics/SVG/1.1/DTD/svg11.dtd">
<svg version="1.1" id="coffee-bean" xmlns="http://www.w3.org/2000/svg" xmlns:xlink="http://www.w3.org/1999/xlink" x="0px"
	 y="0px" viewBox="0 0 1009.9956 1009.9951" enable-background="new 0 0 1009.9956 1009.9951" xml:space="preserve">
<g>
	<path fill="#F4EDE9" d="M1009.9956,504.9951c0,278.9248-226.0752,505-505,505C226.0845,1009.9951,0,783.9199,0,504.9951
		C0,226.0752,226.0845,0,504.9956,0C783.9204,0,1009.9956,226.0752,1009.9956,504.9951z"/>
	<g id="coffee-bean-coffee-bean">
		<path fill="#7A5742" d="M346.3315,312.6211c2.0489,1.5332,4.0215,2.9765,6.2315,4.6445c1.9726,1.708,3.5332,3.0039,5.0664,4.21
			c0.5381,0.457,1.1074,0.9189,1.6406,1.3584c2.6231,2.125,5.3086,4.2724,7.9717,6.6621c2.2861,2.2549,4.25,4.0127,6.2314,5.7881
			c0.377,0.3271,0.7491,0.7216,1.0987,1.0488c2.5869,2.3047,5.1826,4.6494,7.7158,7.2764
			c9.7285,9.8232,20.2197,20.7353,30.1455,33.208c2.4258,2.8066,4.7793,5.6982,7.0928,8.7246
			c6.1601,7.9131,12.0019,16.4355,17.7451,24.8554c0.7529,1.1163,1.5332,2.2325,2.2685,3.3536l1.5332,2.2548
			c1.0313,1.7129,2.0938,3.5284,3.1202,5.3038c7.3662,12.4101,14.9609,25.9091,20.8476,39.9824
			c6.8506,16.8525,11.3965,32.6113,13.5352,46.9492l4.0615,19.1523l0.8701,4.0801l3.7031,11.9883
			c0.6368,1.9551,1.2286,3.8828,1.8965,5.6758l3.1563,7.1289c0.7129,1.4883,1.4795,3.2812,2.2685,5.084
			c0.4932,1.1386,1.085,2.1875,1.6006,3.3086c0.8428,1.9277,1.6543,3.9004,2.6944,5.6484l8.1328,14.7324
			c1.4345,2.3496,3.1787,4.8692,4.9541,7.3887c0.1748,0.2598,0.3271,0.5019,0.4931,0.7617l3.0078,4.3223
			c0.4395,0.6992,0.9688,1.3183,1.4258,1.9726c2.4209,3.5957,4.9854,7.0118,7.6758,10.3477
			c1.8916,2.3223,3.8018,4.6445,5.7744,7.0117l3.6494,4.3574c13.1182,14.2305,25.5459,25.6446,37.5791,34.7012
			c1.0039,0.7441,2.0352,1.623,3.0215,2.3496c4.4746,3.3535,9.1729,6.5723,14.0421,9.7012
			c6.4736,4.1699,13.4141,8.2051,20.8564,12.1055c2.4384,1.2734,4.8505,2.5371,7.3974,3.8105
			c5.6221,2.6719,11.4414,4.959,16.9375,7.1016l2.1973,0.8515l1.0576,0.4219c5.0303,1.748,10.2402,3.2637,15.2432,4.6621
			c1.0587,0.2871,2.1699,0.6367,3.1837,0.9238c0.0449,0,0.0986,0,0.1434,0.0274c3.999,0.8965,7.5498,1.5957,10.9033,2.2051
			c0.0176,0,0.0176,0,0.0176,0c0.1973,0.0449,0.377,0.0722,0.5742,0.1171c0.1973,0.045,0.4121,0.0625,0.6094,0.1075
			c-0.4932-0.377-0.9863-0.7442-1.4796-1.1211c-2.9316-2.1699-5.8642-4.3848-8.7783-6.5723
			c-1.1563-1.0039-2.1875-1.8652-3.1563-2.6543c-1.0312-0.8516-1.9902-1.6406-2.9589-2.4121
			c-2.5371-2.0527-5.129-4.1875-7.6934-6.4648c-0.2959-0.2598-0.5645-0.4571-0.8603-0.7168
			c-0.126-0.1348-0.2422-0.2246-0.3682-0.3594c-2.0264-1.9453-3.8467-3.6309-5.6758-5.2813
			c-2.9766-2.6718-5.9893-5.4062-8.9219-8.4375c-9.0742-9.1191-19.8965-20.3359-30.1367-33.1855
			c-2.4209-2.7793-4.7881-5.7207-7.1016-8.6973c-0.8603-1.1386-1.6943-2.3047-2.5644-3.4433
			c-1.4346-1.9453-2.9141-3.8379-4.3398-5.8282c-0.0988-0.1523-0.1973-0.3046-0.3135-0.457
			c-4.376-6.1152-8.6621-12.4101-12.8584-18.5879l-1.4434-2.1523c-7.6484-12.5977-16.9199-28.5586-24.0038-45.1739
			c-0.8066-1.623-1.5781-3.6582-2.3135-5.8105c-0.2685-0.6992-0.5107-1.3984-0.7617-2.125c-0.1435-0.412-0.296-0.834-0.4395-1.2461
			c-0.2784-0.7715-0.5293-1.5605-0.8252-2.3223l-5.7383-17.9336c-0.2959-0.8515-0.5918-2.2148-0.834-3.6132
			c0-0.045,0-0.0625-0.0361-0.1075c0-0.0722-0.0625-0.4843-0.1436-0.8339c-0.0176-0.1797-0.0714-0.377-0.0714-0.4219l-0.2783-1.4658
			l-1.7393-9.4463c-0.1523-0.502-0.2509-1.0088-0.3496-1.5332c-0.0273-0.2647-0.081-0.5244-0.0986-0.7891
			c-0.0449-0.2871-0.0986-0.5244-0.126-0.7891c-0.0536-0.2871-0.0986-0.5468-0.1161-0.6591
			c-0.4482-2.959-1.1387-5.918-1.7578-8.8545c-0.4121-2.0176-0.708-4.0528-1.2012-6.0703
			c-0.7715-3.1114-1.7754-6.2051-2.7168-9.3164c-0.5742-1.9053-1.0312-3.8331-1.6767-5.7657
			c-0.6729-2.0127-1.5606-4.0527-2.3135-6.0927c-0.7715-2.0577-1.5156-4.1202-2.3496-6.2002
			c-0.3945-0.9639-0.6904-1.9102-1.1025-2.8741c-2.17-5.1064-4.5684-10.2353-7.2315-15.4267l-3.2012-5.7656l-4.6357-8.3301
			c-1.4795-2.4121-3.3535-5.084-5.2051-7.7608l-3.2773-4.7744c-1.2823-1.9951-2.7168-3.7929-4.0801-5.6806
			c-3.2188-4.3623-6.626-8.5899-10.2217-12.9073l-4.2187-5.0664c-0.0987-0.1074-0.1973-0.1972-0.2959-0.3271
			c-4.6358-4.9766-9.1504-9.5137-13.6114-13.8311c-1.1748-1.1387-2.3447-2.2549-3.5058-3.3535
			c-4.5371-4.25-9.0342-8.3076-13.4365-11.8984c-3.2774-2.6993-6.5323-5.1963-9.7647-7.5186
			c-12.2891-9.3164-26.0166-17.6465-42.2734-25.6221c-5.918-2.7841-11.9971-5.1738-17.7539-7.456l-2.4073-0.9414
			c-6.0927-2.1026-12.5039-3.9453-18.4218-5.586c-3.9278-0.9013-7.42-1.5781-10.7647-2.2148
			c-0.4033-0.0674-0.789-0.1348-1.1836-0.1973c0.417,0.3047,0.9326,0.6993,1.3584,1.0088
			C344.686,311.3926,345.5513,312.0469,346.3315,312.6211z"/>
		<path fill="#7A5742" d="M667.8022,725.9053c-2.0712-0.3223-4.2587-0.6993-6.5546-1.1387
			c-0.7442-0.125-1.4796-0.2598-2.2413-0.4121c-3.0576-0.6192-6.2675-1.2735-9.747-2.0625
			c-6.9756-1.9278-13.9073-3.9004-21.0536-6.375l-3.6583-1.4532c-5.9805-2.3398-12.3467-4.8593-18.6866-7.8632
			c-17.8525-8.7696-32.9433-17.9063-46.3125-28.0567c-14.122-10.1679-28.8007-23.5644-44.6269-40.7265l-3.9629-4.7344
			c-5.6221-6.6797-11.419-13.6113-16.624-21.6543l-2.6407-3.793c-2.2509-3.2363-4.4834-6.4824-6.5908-9.9258l-8.249-14.9472
			c-1.9639-3.3535-3.7256-7.3438-5.4785-11.334c-0.6904-1.5957-1.3809-3.1738-2.1074-4.752l-3.5821-8.1328
			c-1.0625-2.8691-1.7978-5.1113-2.5195-7.3711l-5.25-17.2871c-0.4258-1.5156-0.623-2.4746-0.7891-3.4258
			c-0.0537-0.1523-0.2734-1.2636-0.2959-1.416l-3.1875-16.7949c-1.8877-12.6475-5.9004-26.456-11.957-41.3135
			c-6.0303-14.4677-14.4678-28.9306-21.8965-41.3584l-1.0625-1.5381c-8.6035-12.6875-16.7275-24.6582-25.7431-35.1132
			c-9.46-11.876-19.377-22.2012-28.7471-31.67c-2.6006-2.6767-5.1289-4.9316-7.6309-7.1914
			c-2.2861-2.0351-4.5371-4.0752-6.707-6.2002c-1.8379-1.6679-4.1738-3.5283-6.4424-5.3486
			c-2.3672-1.9053-4.667-3.793-6.8594-5.7207c-8.5048-6.3574-16.122-12.0107-22.3134-15.6914
			c-1.5782-0.9463-3.0801-1.9326-4.5235-2.9189c-1.4258-0.9415-2.7529-1.8829-4.1562-2.542l-6.5098-3.3536
			c-36.1982,40.2647-52.1094,95.2569-44.8867,155.9922c7.8994,66.3662,42.8379,133.5088,98.4131,189.0928
			c63.6269,63.627,142.7978,100.1211,217.2207,100.1211c40.2597,0,76.6377-10.4375,106.9355-30.4238
			c-2.1699-0.1973-4.5371-0.502-7.0029-0.8516C669.1382,726.1025,668.4751,725.9951,667.8022,725.9053z"/>
		<path fill="#7A5742" d="M755.7827,541.6865c-7.8906-66.3662-42.8066-133.5264-98.3818-189.0879
			c-63.627-63.6318-142.793-100.1035-217.2295-100.1035c-40.2822,0-76.6602,10.4375-106.9942,30.4238
			c2.17,0.2422,4.5372,0.5244,7.003,0.9014c0.6904,0.085,1.4258,0.2148,2.125,0.3271c2.0175,0.3272,4.125,0.6768,6.3486,1.0938
			c0.8115,0.1748,1.6231,0.3096,2.4658,0.4844c3.0215,0.5918,6.1602,1.2509,9.5899,2.04c6.9804,1.9277,13.9072,3.9004,21.0312,6.375
			l2.7793,1.0986c6.2813,2.4522,12.9121,5.084,19.5654,8.1954c17.9151,8.832,33.0059,17.996,46.3038,28.0791
			c14.0058,10.083,28.6796,23.4521,44.6132,40.6591l4.5371,5.4112c5.4249,6.4873,11.0469,13.1718,16.0723,20.955l2.9414,4.2725
			c2.1338,3.0938,4.2862,6.2051,6.2764,9.4688l8.2676,14.8847c3.0576,5.9405,5.7921,11.8135,8.2578,17.6192
			c0.3945,0.9463,0.6904,1.8427,1.0674,2.7841c1.9902,4.8692,3.8916,9.711,5.5234,14.5577
			c0.5381,1.6181,0.9053,3.2636,1.3984,4.9091c1.2647,4.0752,2.5469,8.1729,3.5332,12.2481
			c0.5108,2.1699,0.834,4.3623,1.2823,6.5322c0.7354,3.5108,1.5421,7.0166,2.0714,10.5449l6.3574,27.4375l1.6943,4.4297
			c0.5469,1.3809,1.0674,2.9141,1.5781,4.4473c0.6455,1.8476,1.2373,3.7031,2.125,5.5234
			c6.752,15.8262,15.4678,30.7735,22.2911,42.0899l1.1123,1.5957c8.6074,12.6699,16.7402,24.6582,25.7158,35.0957
			c9.792,12.248,20.0049,22.8379,28.7558,31.6426c2.6368,2.7265,5.2276,5.0488,7.7383,7.3261
			c2.251,2.0176,4.4385,3.9903,6.5371,6.0528c2.125,1.9003,4.5908,3.9003,7.0293,5.8457c2.1162,1.7304,4.1875,3.4257,6.2139,5.1738
			c8.5273,6.4648,16.1221,12.0956,22.4883,15.8437c1.7217,1.0137,3.2998,2.045,4.833,3.0489
			c1.4795,0.9687,2.8603,1.9101,4.1875,2.5644l6.0166,3.1563C747.103,657.3916,763.0366,602.3994,755.7827,541.6865z"/>
	</g>
</g>
</svg>
