<?xml version="1.0" encoding="utf-8"?>
<!-- Generator: Adobe Illustrator 17.1.0, SVG Export Plug-In . SVG Version: 6.00 Build 0)  -->
<!DOCTYPE svg PUBLIC "-//W3C//DTD SVG 1.1//EN" "http://www.w3.org/Graphics/SVG/1.1/DTD/svg11.dtd">
<svg version="1.1" id="coffee-cup-8" xmlns="http://www.w3.org/2000/svg" xmlns:xlink="http://www.w3.org/1999/xlink" x="0px"
	 y="0px" viewBox="0 0 1009.9956 1009.9951" enable-background="new 0 0 1009.9956 1009.9951" xml:space="preserve">
<g>
	<path fill="#F4EDE9" d="M1009.9956,505c0,278.9199-226.0937,504.9951-505,504.9951C226.0933,1009.9951,0,783.9199,0,505
		C0,226.0976,226.0933,0,504.9956,0C783.9019,0,1009.9956,226.0976,1009.9956,505z"/>
	<g id="coffee-cup-8-coffee-cup-8">
		<g id="coffee-cup-8-coffee-cup">
			<path fill="#7A5742" d="M576.1274,634.8584c0,44.2324,35.9746,80.1972,80.1885,80.1972
				c44.2148,0,80.1709-35.9648,80.1709-80.1972c0-44.2051-35.9561-80.1699-80.1709-80.1699
				C612.102,554.6885,576.1274,590.6533,576.1274,634.8584z M608.6675,634.8584c0-26.2539,21.3857-47.6211,47.6484-47.6211
				c26.2549,0,47.6309,21.3672,47.6309,47.6211c0,26.2812-21.376,47.6582-47.6309,47.6582
				C630.0532,682.5166,608.6675,661.1396,608.6675,634.8584z"/>
			<path fill="#7A5742" d="M560.5259,774.3251c76.3867-29.832,105.7881-118.1348,105.7881-263.8427H340.8394
				c0,145.708,29.3925,242.1709,105.8017,263.8427H560.5259z"/>
		</g>
		<g id="coffee-cup-8-steam">
			<path fill="#7A5742" d="M485.269,235.6689c14.9248,32.1992,23.1924,84.4615,5.2188,119.4312
				c-4.8555,12.5713-28.6397,45.0884-19.5654,76.0815c6.5859,28.7783,23.1386,47.2451,36.4941,58.0816
				c-0.7666-17.3277-7.8682-40.5381-7.3213-61.251c-1.3896-20.7129,13.0645-32.7554,24.4922-58.7495
				C550.5102,323.4521,522.4624,244.4028,485.269,235.6689z"/>
			<path fill="#7A5742" d="M431.3081,326.7612c9.5762,20.6367,14.8574,54.127,3.3398,76.5391
				c-3.1113,8.0429-18.3544,28.8862-12.5351,48.747c4.2187,18.4312,14.8262,30.2671,23.3984,37.2159
				c-4.1201-26.6978-10.706-49.9395,10.9795-76.8887C473.106,383.0132,455.1548,332.3608,431.3081,326.7612z"/>
			<path fill="#7A5742" d="M549.479,326.7612c9.585,20.6367,14.876,54.127,3.3535,76.5391
				c-3.1113,8.0429-18.3546,28.8862-12.5439,48.747c4.2226,18.4312,14.83,30.2671,23.4023,37.2159
				c-4.1152-26.6978-10.6973-49.9395,11.002-76.8887C591.2905,383.0132,573.3296,332.3608,549.479,326.7612z"/>
		</g>
	</g>
</g>
</svg>
