<?xml version="1.0" encoding="utf-8"?>
<!-- Generator: Adobe Illustrator 17.1.0, SVG Export Plug-In . SVG Version: 6.00 Build 0)  -->
<!DOCTYPE svg PUBLIC "-//W3C//DTD SVG 1.1//EN" "http://www.w3.org/Graphics/SVG/1.1/DTD/svg11.dtd">
<svg version="1.1" id="coffee-maker-2" xmlns="http://www.w3.org/2000/svg" xmlns:xlink="http://www.w3.org/1999/xlink" x="0px"
	 y="0px" viewBox="0 0 1009.9956 1009.9951" enable-background="new 0 0 1009.9956 1009.9951" xml:space="preserve">
<g>
	<path fill="#F4EDE9" d="M1009.9956,504.9951c0,278.9248-226.0937,505-505.0049,505C226.0845,1009.9951,0,783.9199,0,504.9951
		C0,226.0752,226.0845,0,504.9907,0C783.9019,0,1009.9956,226.0752,1009.9956,504.9951z"/>
	<g id="coffee-maker-2-coffee-maker-2">
		<path fill="#7A5742" d="M735.4556,431.2402h-73.7589c-11.9981,0-22.1299,7.7383-25.9502,18.458h-20.1299v-36.8711h73.7412
			c20.3457,0,36.8711-16.5478,36.8711-36.8886v-92.1631c0-20.3408-16.5254-36.8887-36.8711-36.8887H283.7573
			c-20.3271,0-36.8701,16.5479-36.8701,36.8887v119.8252v322.6367c0,20.3457,16.543,36.8711,36.8701,36.8711h414.8184
			c15.2617,0,27.6533-12.4004,27.6533-27.6446v-18.4443c0-15.2519-12.3916-27.6611-27.6533-27.6611H412.814
			c-10.1631,0-18.4395-8.2588-18.4395-18.418V431.2402c0-10.1367,8.2764-18.4131,18.4395-18.4131h55.3105v46.084
			c0,15.2432,12.4014,27.6621,27.6489,27.6621h9.2222v18.4219c0,5.1064,4.125,9.2266,9.2266,9.2266
			c5.0839,0,9.2089-4.1202,9.2089-9.2266v-18.4219h36.879v18.4219c0,5.1064,4.1161,9.2266,9.2089,9.2266
			c5.1026,0,9.2178-4.1202,9.2178-9.2266v-18.4219h9.2178c12.0058,0,22.1474-7.747,25.9678-18.4443h21.8242
			c3.8291,10.6973,13.9521,18.4443,25.9502,18.4443h73.7589c15.243,0,27.6533-12.4189,27.6533-27.6621
			C763.1089,443.668,750.6987,431.2402,735.4556,431.2402z M569.519,468.1289h-55.2968h-18.4488
			c-5.0796,0-9.2085-4.1426-9.2085-9.2178v-46.084h110.6075v46.084c0,5.0752-4.1163,9.2178-9.2178,9.2178H569.519z M412.814,707.793
			h285.7617c5.084,0,9.2178,4.1425,9.2178,9.2265v18.4443c0,5.084-4.1339,9.2178-9.2178,9.2178H283.7573
			c-10.1723,0-18.4258-8.2763-18.4258-18.4443V412.8271h115.732c-3.1695,5.4385-5.1245,11.6836-5.1245,18.4131v239.7002
			C375.939,691.2676,392.4824,707.793,412.814,707.793z M412.814,394.3828H265.3315V283.7754
			c0-10.1729,8.2535-18.4444,18.4258-18.4444h405.6006c10.1592,0,18.4356,8.2715,18.4356,18.4444v92.1631
			c0,10.1728-8.2764,18.4443-18.4356,18.4443h-82.959H477.3423H412.814z"/>
		<path fill="#7A5742" d="M329.8599,302.1836c-15.2525,0-27.667,12.4277-27.667,27.6758c0,15.2431,12.4145,27.6572,27.667,27.6572
			c15.247,0,27.6347-12.4141,27.6347-27.6572C357.4946,314.6113,345.1069,302.1836,329.8599,302.1836z M329.8599,339.0722
			c-5.0889,0-9.2227-4.1425-9.2227-9.2128c0-5.0889,4.1338-9.2178,9.2227-9.2178c5.0791,0,9.2085,4.1289,9.2085,9.2178
			C339.0684,334.9297,334.939,339.0722,329.8599,339.0722z"/>
		<path fill="#7A5742" d="M403.5962,302.1836c-15.2471,0-27.6572,12.4277-27.6572,27.6758
			c0,15.2431,12.4101,27.6572,27.6572,27.6572c15.248,0,27.6489-12.4141,27.6489-27.6572
			C431.2451,314.6113,418.8442,302.1836,403.5962,302.1836z M403.5962,339.0722c-5.084,0-9.2217-4.1425-9.2217-9.2128
			c0-5.0889,4.1377-9.2178,9.2217-9.2178c5.0801,0,9.2178,4.1289,9.2178,9.2178
			C412.814,334.9297,408.6763,339.0722,403.5962,339.0722z"/>
		<path fill="#7A5742" d="M617.4282,562.1933H460.8218c-5.0933,0-9.2178,4.1153-9.2178,9.2178v43.1651
			c0,41.0673,33.4092,74.4677,74.4629,74.4677h26.0928c27.8505,0,52.1591-15.3955,64.9365-38.1084l33.4902-23.9228
			c7.6309-5.4512,12.1856-14.3018,12.1856-23.6719c0-16.041-13.0459-29.1143-29.0967-29.1143h-7.0293v-2.8154
			C626.646,566.3086,622.521,562.1933,617.4282,562.1933z M633.6753,592.6709c5.8916,0,10.6699,4.7881,10.6699,10.6699
			c0,3.4258-1.6758,6.6807-4.4736,8.6709l-13.5938,9.7109c0.2334-2.3584,0.3682-4.7255,0.3682-7.1464v-21.9053H633.6753z"/>
	</g>
</g>
</svg>
