<?xml version="1.0" encoding="utf-8"?>
<!-- Generator: Adobe Illustrator 17.1.0, SVG Export Plug-In . SVG Version: 6.00 Build 0)  -->
<!DOCTYPE svg PUBLIC "-//W3C//DTD SVG 1.1//EN" "http://www.w3.org/Graphics/SVG/1.1/DTD/svg11.dtd">
<svg version="1.1" id="coffee-cup-26" xmlns="http://www.w3.org/2000/svg" xmlns:xlink="http://www.w3.org/1999/xlink" x="0px"
	 y="0px" viewBox="0 0 1009.9956 1009.9951" enable-background="new 0 0 1009.9956 1009.9951" xml:space="preserve">
<g>
	<path fill="#F4EDE9" d="M1009.9956,504.9951c0,278.9248-226.0752,505-505,505C226.0845,1009.9951,0,783.9199,0,504.9951
		C0,226.0752,226.0845,0,504.9956,0C783.9204,0,1009.9956,226.0752,1009.9956,504.9951z"/>
	<g id="coffee-cup-26-coffee-cup-26">
		<path fill="#7A5742" d="M465.4663,564.3271c0.834,0.4571,1.6904,0.9414,2.5332,1.4707l1.7979,1.1836
			c0.8964,0.5645,1.7978,1.1387,2.6943,1.793c2.8916,2.1074,6.0254,4.4297,9.0742,7.1465c2.6406,2.1972,5.4336,5.0664,8.2315,7.9804
			c0.1386,0.1524,0.8203,0.879,0.9502,1.0312c2.5419,3.0039,5.4472,6.5098,7.9355,10.4102c2.6768,4.3222,4.6045,8.375,5.873,12.2128
			c0.0137,0.0176,0.3096,0.9415,0.3184,0.959l2.4346,5.5684l-7.792,6.4922l8.3076-5.4883l1.9814,3.0038
			c0.2959,0.4395,0.5694,0.9063,0.9014,1.3008l2.5283,3.1914c0.2647,0.3144,0.7891,0.8164,1.2911,1.3183
			c0.0273,0.0274,0.7265,0.7442,0.7441,0.7715c1.3994,1.5332,2.6543,2.5645,3.8828,3.5957l1.0762,0.9141
			c3.3535,2.5919,6.6445,4.7169,9.7109,6.2051c3.0663,1.623,6.2051,2.8691,10.0869,4.0351c0.9688,0.2871,2.1612,0.5196,3.291,0.7618
			l1.3272,0.2871c1.0312,0.1523,2.457,0.3046,3.8105,0.4394c1.4258,0.0625,3.8653,0.1797,5.5059-0.0898
			c0.7266-0.0625,1.2461-0.1524,1.7129-0.2422c5.3262-9.1543,6.5635-20.3633,3.1113-32.082
			c-4.125-14.0059-14.2217-27.3125-28.4512-37.418c-14.2304-10.1231-30.083-15.2793-44.6718-14.5801
			c-8.3838,0.4219-15.8438,2.7891-21.9414,6.8242c0.1797,0.1074,0.3545,0.1973,0.4755,0.2598L465.4663,564.3271z"/>
		<path fill="#7A5742" d="M477.9702,644.7041c17.4893,12.4277,38.3594,17.2519,54.3828,13.1719
			c-4.376-1.4258-7.9892-2.9141-11.415-4.7168c-4.0615-1.9727-8.4912-4.8145-13.3106-8.5625l-1.3271-1.1387
			c-1.8965-1.6055-3.8018-3.2461-5.5234-5.1563c-1.2149-1.2011-2.0801-2.08-2.8829-3.0214l-2.708-3.3985
			c-0.6904-0.8515-1.3808-1.8828-2.0576-2.914l-1.9277-2.9415c-0.583-0.914-0.9463-1.5957-1.2959-2.2949l-2.0488-4.1074
			c-0.1075-0.2148-0.3858-0.8965-0.4708-1.1387l-0.8427-2.2324c-0.0362-0.1074-0.5606-1.4433-0.5918-1.5605
			c-1.0762-3.2637-2.3672-5.918-4.1201-8.7598c-1.7442-2.7168-4.1563-5.6406-6.2725-8.1328
			c-2.3984-2.457-4.6445-4.8242-7.0117-6.8145c-2.7617-2.457-5.3711-4.3672-7.7608-6.0976
			c-0.5468-0.3946-1.0712-0.7266-1.6005-1.0489c-0.7891-0.5117-1.5782-1.0136-2.3448-1.5605
			c-0.0625-0.0176-0.5781-0.3047-1.0713-0.5645c-0.7666-0.4394-1.4931-0.8339-2.1923-1.2734
			c-0.9327-0.4668-1.9952-1.0137-3.0264-1.4883C441.8257,599.3056,452.8101,626.7978,477.9702,644.7041z"/>
		<path fill="#7A5742" d="M667.6948,401.3232c-0.8788-1.0088-1.9726-1.7529-3.1288-2.3222
			c-16.7589-53.9883-44.6543-93.1319-81.3183-115.5127l41.9902-72.1319c2.7891-4.7568,1.166-10.8271-3.5684-13.6113
			c-4.7705-2.7617-10.8408-1.1611-13.6211,3.5957l-42.5097,72.9883c-19.1172-8.3301-40.1797-12.7149-62.9951-12.7149h-0.0225
			c-88.6172,0-133.1543,72.7012-155.2481,136.8575c-1.8877,0.5068-3.6494,1.3584-4.9677,2.8515
			c-1.8741,2.1475-2.7481,5.0166-2.376,7.8682l51.9707,395.6025c0.2822,2.1524,1.2822,4.1602,2.8242,5.7207
			c3.0938,3.0938,3.0938,3.0938,113.4951,3.0938c103.9815,0,103.9815,0,107.0567-3.0938c1.5517-1.5605,2.5556-3.5683,2.833-5.7207
			l51.9531-395.6025C670.439,406.3398,669.5776,403.4707,667.6948,401.3232z M437.9927,560.8838v-0.0176
			c10.4326-14.6875,27.0029-23.3047,46.6845-24.2637c19.126-0.8965,39.3633,5.5684,57.1895,18.2559
			c17.8613,12.6699,30.6475,29.7246,36.0185,48.0254c5.5596,18.8925,2.8692,37.373-7.5322,52.0332c0,0,0,0.0176-0.0176,0.0176
			c-10.9843,15.4589-29.3388,24.3359-50.33,24.3359c-17.9239,0-36.9375-6.5098-53.5616-18.3281
			C429.3579,634.5537,416.8628,590.6084,437.9927,560.8838z M368.1294,470.958h-6.3125v-19.9014h3.6894H644.48h4.8691v19.9014
			h-7.4687H368.1294z M643.2964,397.9248H516.5718l56.7402-97.3818C609.8872,322.9638,631.0933,361.7578,643.2964,397.9248z
			 M502.521,281.5156c0.0088,0,0,0,0.0225,0c20.1523,0,37.6191,3.7481,52.9521,10.0381l-59.0898,101.4394
			c-0.9102,1.5782-1.1836,3.2637-1.1973,4.9317H368.6001C389.313,341.8564,428.6987,281.5156,502.521,281.5156z"/>
	</g>
</g>
</svg>
