<?xml version="1.0" encoding="utf-8"?>
<!-- Generator: Adobe Illustrator 17.1.0, SVG Export Plug-In . SVG Version: 6.00 Build 0)  -->
<!DOCTYPE svg PUBLIC "-//W3C//DTD SVG 1.1//EN" "http://www.w3.org/Graphics/SVG/1.1/DTD/svg11.dtd">
<svg version="1.1" id="coffee-cup-15" xmlns="http://www.w3.org/2000/svg" xmlns:xlink="http://www.w3.org/1999/xlink" x="0px"
	 y="0px" viewBox="0 0 1009.9956 1009.9951" enable-background="new 0 0 1009.9956 1009.9951" xml:space="preserve">
<g>
	<path fill="#F4EDE9" d="M1009.9956,504.9951c0,278.9062-226.0752,505-505,505C226.0845,1009.9951,0,783.9013,0,504.9951
		C0,226.084,226.0845,0,504.9956,0C783.9204,0,1009.9956,226.084,1009.9956,504.9951z"/>
	<g id="coffee-cup-15-coffee-cup-15">
		<path fill="#7A5742" d="M604.4624,494.8896c0,59.2159,48.1504,107.4024,107.375,107.4024
			c59.207,0,107.375-48.1865,107.375-107.4024c0-59.2065-48.168-107.3706-107.375-107.3706
			C652.6128,387.519,604.4624,435.6831,604.4624,494.8896z M648.0308,494.8896c0-35.1714,28.6309-63.7793,63.8066-63.7793
			s63.8066,28.6079,63.8066,63.7793c0,35.1944-28.6308,63.8067-63.8066,63.8067S648.0308,530.084,648.0308,494.8896z"/>
		<path fill="#7A5742" d="M574.7378,681.665c102.291-39.956,141.6816-158.2168,141.6816-353.3437H280.5522
			c0,195.1269,39.3682,324.3008,141.668,353.3437H574.7378z"/>
	</g>
</g>
</svg>
