<?xml version="1.0" encoding="utf-8"?>
<!-- Generator: Adobe Illustrator 17.1.0, SVG Export Plug-In . SVG Version: 6.00 Build 0)  -->
<!DOCTYPE svg PUBLIC "-//W3C//DTD SVG 1.1//EN" "http://www.w3.org/Graphics/SVG/1.1/DTD/svg11.dtd">
<svg version="1.1" id="coffee-cup-22" xmlns="http://www.w3.org/2000/svg" xmlns:xlink="http://www.w3.org/1999/xlink" x="0px"
	 y="0px" viewBox="0 0 1009.9956 1009.9951" enable-background="new 0 0 1009.9956 1009.9951" xml:space="preserve">
<g>
	<path fill="#F4EDE9" d="M1009.9956,504.9951c0,278.9248-226.0937,505-504.9863,505C226.0933,1009.9951,0,783.9199,0,504.9951
		C0,226.0752,226.0933,0,505.0093,0C783.9019,0,1009.9956,226.0752,1009.9956,504.9951z"/>
	<g id="coffee-cup-22-coffee-cup-22">
		<path fill="#7A5742" d="M505.9507,344.8379c-42.502,0.0136-82.4483,16.5478-112.4727,46.5859
			c-30.0429,30.0293-46.5683,69.9756-46.5683,112.4639c-0.0088,42.4795,16.5166,82.417,46.5683,112.4551
			c30.0244,30.038,69.9707,46.582,112.4365,46.582h0.0225c87.6758-0.0098,159.0322-71.3662,159.041-159.0596
			c0.0089-42.4658-16.5342-82.3984-46.5547-112.4414C588.3852,361.3857,548.4565,344.8379,505.9507,344.8379z M416.0962,498.6064
			c-2.8379-11.6611-1.5557-18.1396-1.5557-18.1396c2.4434-26.0567,21.502-47.9756,47.9668-47.9756
			c19.6817,0,36.5615,11.8809,43.999,28.8096c7.3975-16.9287,23.2012-28.8096,42.8741-28.8096
			c26.4873,0,45.5683,21.9189,47.9716,47.9756c0,0,1.2637,6.4785-1.5693,18.1396c-3.9005,15.9024-13.002,29.9619-25.3037,40.7666
			l-63.9727,56.0869l-65.1289-56.0869C429.1245,528.5683,419.9878,514.5088,416.0962,498.6064z"/>
		<path fill="#7A5742" d="M761.1987,479.7363c0,0-1.9551,0-5.0752,0.0225c-5.8193-57.0996-30.9258-110.6123-71.6699-151.3477
			c-47.1914-47.1914-109.9219-73.1719-176.6426-73.1719c-66.7295,0-129.4687,25.9805-176.6465,73.1719
			c-97.4091,97.3955-97.4091,255.8848,0,353.2891c48.711,48.707,112.67,73.0508,176.6465,73.0508
			c63.959,0,127.9541-24.3614,176.6426-73.0508c36.0283-36.0186,59.6006-81.1924,68.8008-130.9219
			c4.7793,0.0449,7.8906,0.0723,7.9619,0.0723c9.4873,0,18.3906-3.7032,25.125-10.4375
			c6.7245-6.7334,10.4277-15.6553,10.4277-25.1241C796.7515,495.6924,780.8091,479.7451,761.1987,479.7363z M773.7163,527.7881
			c-3.3535,3.3632-7.8008,5.2187-12.4365,5.2187c-0.0186,0-42.1885-0.3135-60.8477-0.8066c-8.6797,0-16.2207,5.9892-18.3281,14.5976
			c-19.7529,81.4883-92.1768,138.3994-176.1084,138.3994h-0.0811c-50.2353,0-96.9511-20.0849-131.5537-56.5527
			c-34.5752-36.4404-52.1406-84.2324-49.5-134.5752c4.9854-94.499,83.0801-169.8232,177.7989-171.4775l3.2773-0.0313
			c91.7734,0,169.1553,68.626,179.9961,159.6055c1.0137,8.9531,8.5273,15.7051,17.6279,15.7051
			c17.4854-0.1612,57.6914-0.2959,57.6553-0.2959c9.7559,0.0136,17.7002,7.958,17.7188,17.7226
			C778.9351,519.9961,777.0786,524.4346,773.7163,527.7881z M343.7759,669.084c-90.4463-90.4551-90.4463-237.6153,0-328.0616
			c43.8154-43.8105,102.0761-67.9443,164.0351-67.9443c61.9502,0,120.2159,24.1338,164.0176,67.9443
			c37.4268,37.418,60.6318,86.4385,66.3525,138.8125c-9.7373,0.0538-20.6679,0.1211-28.998,0.2061
			c-1.9902,0.0137-3.8906,0.0312-5.5322,0.0537c-0.1973-1.6543-0.583-3.2549-0.8067-4.8867
			c-14.0869-97.5029-97.7724-170.4912-196.9072-170.4912l-3.5908,0.0312c-104.0352,1.8203-189.8233,84.5645-195.3067,188.3799
			c-2.9003,55.2744,16.4092,107.7744,54.3829,147.8008c38.0048,40.0449,89.3164,62.1122,144.5283,62.1122h0.0449
			c92.1992,0,171.7422-62.5244,193.4502-152.0204c0.0361-0.1611,0.2598-0.9678,0.9951-0.9678
			c8.5186,0.2149,22.336,0.4121,34.665,0.5469c-8.9131,44.9492-30.5586,85.7744-63.2686,118.4844
			C581.3999,759.5303,434.2446,759.5303,343.7759,669.084z"/>
	</g>
</g>
</svg>
