<?xml version="1.0" encoding="utf-8"?>
<!-- Generator: Adobe Illustrator 17.1.0, SVG Export Plug-In . SVG Version: 6.00 Build 0)  -->
<!DOCTYPE svg PUBLIC "-//W3C//DTD SVG 1.1//EN" "http://www.w3.org/Graphics/SVG/1.1/DTD/svg11.dtd">
<svg version="1.1" id="coffee-cup-10" xmlns="http://www.w3.org/2000/svg" xmlns:xlink="http://www.w3.org/1999/xlink" x="0px"
	 y="0px" viewBox="0 0 1009.9956 1009.9951" enable-background="new 0 0 1009.9956 1009.9951" xml:space="preserve">
<g>
	<path fill="#F4EDE9" d="M1009.9956,505c0,278.9199-226.0752,504.9951-505,504.9951C226.0757,1009.9951,0,783.9199,0,505
		C0,226.0976,226.0757,0,504.9956,0C783.9204,0,1009.9956,226.0976,1009.9956,505z"/>
	<g id="coffee-cup-10-coffee-cup-10">
		<path fill="#7A5742" d="M677.9888,457.2119l18.4707-64.416H303.8208l96.3506,335.9433h199.8701l30.4687-106.1562h98.1036V457.2119
			H677.9888z M707.9009,601.8701h-71.4463l35.5713-123.9365h35.875V601.8701z"/>
		<path fill="#7A5742" d="M566.6587,328.039c-0.0801,14.167-9.1992,22.5645-13.8262,23.7256l5.0215,20.1031
			c14.418-3.6045,29.3926-20.9414,29.5176-43.7749c0-8.5542-4.7705-18.0098-13.4141-26.586
			c-16.6328-16.7138-18.3008-24.4697-15.539-32.2441c4.3846-12.3335,13.1357-13.9658,26.0214-12.5083
			c2.627,0.2866,4.7344,0.5337,7.1016-0.0493l-3.291-13.2574l0.3047-7.1059c-0.4571-0.0225-1.0664-0.0987-1.8379-0.1797
			c-24.6319-2.7617-40.6992,6.0708-47.8281,26.1694c-7.6661,21.5913,5.2812,38.6148,20.4344,53.8311
			C565.1079,321.9101,566.6587,326.3667,566.6587,328.039z"/>
		<path fill="#7A5742" d="M415.7554,328.0566c-0.045,14.145-9.1817,22.542-13.8086,23.708l5.0215,20.1031
			c14.4404-3.6226,29.4326-20.9683,29.5-43.7749c0-8.5362-4.7569-17.9873-13.3692-26.604
			c-16.6826-16.6734-18.3232-24.4341-15.5615-32.2173c4.3848-12.3467,13.1719-13.9654,25.9941-12.5171
			c2.6543,0.3003,4.7569,0.5337,7.0791-0.0542l-3.2861-13.2207l0.3047-7.1377c-0.457-0.0225-1.0713-0.0987-1.8203-0.1797
			c-24.5235-2.7568-40.6367,6.0664-47.8008,26.1562c-7.6934,21.6407,5.2588,38.6548,20.4258,53.8311
			C414.1997,321.9057,415.7554,326.3667,415.7554,328.0566z"/>
		<path fill="#7A5742" d="M491.2007,328.0434c-0.0674,14.1626-9.1865,22.5601-13.8086,23.7212l5.0166,20.1031
			c14.4228-3.6045,29.3926-20.9458,29.5049-43.7749c0-8.5542-4.7569-18.0098-13.3741-26.6084
			c-16.6777-16.6514-18.3457-24.4161-15.5615-32.2129c4.3848-12.3467,13.1719-13.9429,25.9942-12.5171
			c2.6318,0.2959,4.7343,0.5337,7.1064-0.0493l-3.291-13.2574l0.3096-7.1059c-0.462-0.0225-1.0762-0.0987-1.8203-0.1797
			c-24.6133-2.7075-40.6592,6.0752-47.8282,26.1562c-7.7158,21.6631,5.2637,38.6773,20.4532,53.8399
			C489.6401,321.8965,491.2007,326.3574,491.2007,328.0434z"/>
		<rect x="326.8784" y="753.6122" fill="#7A5742" width="382.0537" height="20.7129"/>
	</g>
</g>
</svg>
