<?xml version="1.0" encoding="utf-8"?>
<!-- Generator: Adobe Illustrator 17.1.0, SVG Export Plug-In . SVG Version: 6.00 Build 0)  -->
<!DOCTYPE svg PUBLIC "-//W3C//DTD SVG 1.1//EN" "http://www.w3.org/Graphics/SVG/1.1/DTD/svg11.dtd">
<svg version="1.1" id="coffee-cup-25" xmlns="http://www.w3.org/2000/svg" xmlns:xlink="http://www.w3.org/1999/xlink" x="0px"
	 y="0px" viewBox="0 0 1010 1009.9951" enable-background="new 0 0 1010 1009.9951" xml:space="preserve">
<g>
	<path fill="#F4EDE9" d="M1010,504.9951c0,278.9248-226.0664,505-504.9956,505C226.084,1009.9951,0,783.9199,0,504.9951
		C0,226.0752,226.084,0,505.0044,0C783.9336,0,1010,226.0752,1010,504.9951z"/>
	<g id="coffee-cup-25-coffee-cup-25">
		<path fill="#7A5742" d="M660.9922,411.6435c-0.4844-3.0439-2.502-5.4648-5.1016-6.7695
			c-15.8535-51.0918-42.2422-88.1328-76.916-109.3076l39.7129-68.2002c2.6094-4.4922,1.1035-10.2441-3.3984-12.876
			c-4.4922-2.6094-10.2578-1.0849-12.8575,3.3985l-39.9824,68.6484c0,0.0225,0,0.0449-0.0273,0.0449l0,0l-0.1973,0.3047
			c-18.0762-7.8594-37.9551-12.0107-59.5425-12.0107h-0.0224c-83.7618,0-125.8736,68.7334-146.7837,129.4062
			c-1.7754,0.4707-3.4434,1.2686-4.6939,2.6856c-1.7754,2.0351-2.5962,4.7431-2.2553,7.4287l6.4741,49.2627l42.6762,324.7617
			c0.274,2.0538,1.2061,3.963,2.6631,5.4249c2.937,2.914,2.937,2.914,104.2642,2.9228c3.9448,0,7.729,0,11.3745,0
			c89.9707,0,90.0781-0.0976,92.8848-2.9228c1.4707-1.4619,2.4121-3.3985,2.6718-5.4424
			c0.2872-2.1875,42.6368-324.7217,42.6368-324.7217s6.0703-46.1513,6.4648-49.0879
			C661.1895,413.6387,661.1719,412.6435,660.9922,411.6435z M502.6821,293.7012c19.0855,0,35.6558,3.5732,50.1909,9.5498
			l-57.5659,100.5156H376.0376c19.5962-53.0108,56.8437-110.0654,126.6221-110.0654
			C502.6597,293.7012,502.6597,293.7012,502.6821,293.7012z M635.7422,403.7666H516.9883l52.6972-92.0156
			C604.207,332.957,624.2109,369.5947,635.7422,403.7666z M636.8633,453.9931H373.1455l-4.1426-31.4013h272.1729
			C640.1094,429.6396,638.7285,439.8525,636.8633,453.9931z M599.1133,600.7051c0,51.9619-42.1426,94.1132-94.1089,94.1132
			c-51.9888,0-94.1138-42.1513-94.1138-94.1132c0-51.9971,42.125-94.1319,94.1138-94.1319
			C556.9707,506.5732,599.1133,548.708,599.1133,600.7051z"/>
		<path fill="#7A5742" d="M439.3599,588.2773c-0.2828,1.9004-0.6773,7.0205,1.1611,14.6153
			c2.7842,11.3427,9.1636,21.6992,18.5786,29.9931l40.1211,34.5313c1.7529,1.5234,3.9453,2.2861,6.1377,2.2861
			c2.21,0,4.4385-0.7803,6.2002-2.3223l39.3867-34.5576c9.334-8.1865,15.7363-18.5342,18.5156-29.9306
			c1.8653-7.586,1.4434-12.6963,1.1836-14.5977c-2.1425-21.5557-18.8027-37.7852-38.9062-37.7852
			c-10.1856,0-19.5205,3.9629-26.501,10.8858c-7.1372-6.8506-16.7583-10.8858-26.9936-10.8858
			C458.1895,550.5097,441.5298,566.7305,439.3599,588.2773z M505.3765,587.0752c3.7299-0.0088,7.102-2.2237,8.6167-5.6397
			c3.2822-7.5859,9.9268-12.0957,17.7451-12.0957c11.9883,0,19.207,10.5625,20.2558,21.6719
			c0.0176,0.0273,0.3497,2.6543-0.8164,7.3975c-1.8554,7.6308-6.2402,14.6425-12.625,20.2646l-33.2524,29.1504l-33.8535-29.123
			c-6.398-5.667-10.7822-12.6885-12.6431-20.2823c-1.0981-4.5371-0.8472-7.1201-0.8696-7.1201
			c0.0674-0.3047,0.1211-0.6279,0.1435-0.9414c0.9771-10.4551,8.2222-21.0176,20.1661-21.0176
			c7.998,0,15.2563,4.7608,18.498,12.1143c1.5151,3.4248,4.8779,5.6211,8.6167,5.6211H505.3765z"/>
	</g>
</g>
</svg>
