<?xml version="1.0" encoding="utf-8"?>
<!-- Generator: Adobe Illustrator 17.1.0, SVG Export Plug-In . SVG Version: 6.00 Build 0)  -->
<!DOCTYPE svg PUBLIC "-//W3C//DTD SVG 1.1//EN" "http://www.w3.org/Graphics/SVG/1.1/DTD/svg11.dtd">
<svg version="1.1" id="coffee-cup-18" xmlns="http://www.w3.org/2000/svg" xmlns:xlink="http://www.w3.org/1999/xlink" x="0px"
	 y="0px" viewBox="0 0 1009.9956 1010" enable-background="new 0 0 1009.9956 1010" xml:space="preserve">
<g>
	<path fill="#F4EDE9" d="M1009.9956,505.0049c0,278.9287-226.0752,504.9951-505,504.9951C226.0757,1010,0,783.9336,0,505.0049
		C0,226.1064,226.0757,0,504.9956,0C783.9204,0,1009.9956,226.1064,1009.9956,505.0049z"/>
	<path id="coffee-cup-18-coffee-cup-18" fill="#7A5742" d="M755.1645,384.6636h-46.5459
		c-2.0087-49.6573-9.9892-87.2139-16.0771-100.7583c-1.5332-3.398-5.5947-12.4278-14.3916-12.4278H345.1792
		c-8.7783,0-12.8447,9.043-14.3779,12.4502c-17.4131,38.7183-50.5674,273.7422,86.1377,428.0039
		c14.9609,16.9024,36.2431,26.6036,58.413,26.6036h72.6026c22.1836,0,43.4795-9.7012,58.4355-26.6036
		c45.9092-51.791,72.6026-112.701,87.2364-172.2303h61.538c16.7403,0,30.3877-13.6387,30.3877-30.3975v-94.23
		C785.5522,398.3062,771.9048,384.6636,755.1645,384.6636z M349.2993,291.5542h324.7442
		c4.1337,8.397,10.3291,34.3242,13.5214,70.4775c-14.75-4.5239-31.0156-0.3051-42.3222,12.4185
		c-8.662,9.7515-23.1612,9.7427-31.8135,0c-8.1865-9.2266-19.1709-14.3018-30.9082-14.3018
		c-11.7461,0-22.7305,5.0752-30.9346,14.3018c-8.6357,9.7515-23.1611,9.7515-31.8047,0
		c-8.1865-9.2266-19.1797-14.3018-30.917-14.3018c-11.7509,0-22.7304,5.0752-30.9257,14.3018c-8.6573,9.7515-23.17,9.7295-31.8135,0
		c-8.1865-9.2266-19.1572-14.3018-30.9082-14.3018h-0.0088c-11.7373,0-22.7305,5.0752-30.9082,14.3018
		c-7.792,8.7783-19.5068,10.0254-28.4824,3.0444c-0.3584-0.2734-0.7891-0.3589-1.1612-0.5693
		C337.2749,333.0112,344.5962,301.0542,349.2993,291.5542z M765.4849,509.3037c0,5.6846-4.6446,10.3389-10.3204,10.3389h-57.0009
		c8.2578-40.6768,11.1093-80.0855,10.9033-114.9029h46.0976c5.6758,0,10.3204,4.6358,10.3204,10.334V509.3037z"/>
</g>
</svg>
