<?xml version="1.0" encoding="utf-8"?>
<!-- Generator: Adobe Illustrator 17.1.0, SVG Export Plug-In . SVG Version: 6.00 Build 0)  -->
<!DOCTYPE svg PUBLIC "-//W3C//DTD SVG 1.1//EN" "http://www.w3.org/Graphics/SVG/1.1/DTD/svg11.dtd">
<svg version="1.1" id="coffee-cup-13" xmlns="http://www.w3.org/2000/svg" xmlns:xlink="http://www.w3.org/1999/xlink" x="0px"
	 y="0px" viewBox="0 0 1009.9956 1009.9951" enable-background="new 0 0 1009.9956 1009.9951" xml:space="preserve">
<g>
	<path fill="#F4EDE9" d="M1009.9956,504.9951c0,278.9062-226.0752,505-504.9956,505c-278.9019,0-505-226.0938-505-505
		C0,226.084,226.0981,0,505,0C783.9204,0,1009.9956,226.084,1009.9956,504.9951z"/>
	<path id="coffee-cup-13-coffee-cup-13" fill="#7A5742" d="M772.7026,411.8364c-17.2871-7.4917-34.9961-8.2222-51.3066-5.6352
		c3.5957-22.2237,6.6797-46.0708,9.0293-72.002H525.2964h-62.0718H258.1128C286.6626,650.3349,417.9072,675.791,417.9072,675.791
		h45.3174h62.0718h45.3711c0,0,54.373-10.7236,100.7754-102.6318l0,0C784.8257,583.9101,828.2515,436.0688,772.7026,411.8364z
		 M702.1714,530.3799c-4.8242,0.4394-8.6074-0.1348-11.836-1.1661c8.5547-23.0351,16.3731-49.6835,23.0352-80.4663
		c7.541-3.3354,16.418-5.3842,25.8242-3.0844C763.9604,451.5317,749.8022,526.4795,702.1714,530.3799z M557.4507,547.2549
		l-48.2725-26.461l-49.1772,24.7393l10.2802-54.0733l-38.7627-39.0947l54.6202-6.9892l25.2182-48.9219l23.5157,49.792
		l54.3378,8.8857l-40.1171,37.7002L557.4507,547.2549z"/>
</g>
</svg>
