<?xml version="1.0" encoding="utf-8"?>
<!-- Generator: Adobe Illustrator 17.1.0, SVG Export Plug-In . SVG Version: 6.00 Build 0)  -->
<!DOCTYPE svg PUBLIC "-//W3C//DTD SVG 1.1//EN" "http://www.w3.org/Graphics/SVG/1.1/DTD/svg11.dtd">
<svg version="1.1" id="coffee-cup-16" xmlns="http://www.w3.org/2000/svg" xmlns:xlink="http://www.w3.org/1999/xlink" x="0px"
	 y="0px" viewBox="0 0 1009.9956 1009.9951" enable-background="new 0 0 1009.9956 1009.9951" xml:space="preserve">
<g>
	<path fill="#F4EDE9" d="M1009.9956,504.9951c0,278.9062-226.0752,505-505,505C226.1069,1009.9951,0,783.9013,0,504.9951
		C0,226.084,226.1069,0,504.9956,0C783.9204,0,1009.9956,226.084,1009.9956,504.9951z"/>
	<path id="coffee-cup-16-coffee-cup-16" fill="#7A5742" d="M790.7261,503.1704c-8.5547-16.5161-26.1201-29.7109-49.3887-37.0859
		l-4.3848-1.439c-2.1875-0.7266-4.375-0.4888-6.375,0.2197c-1.4882-0.8652-3.1113-1.5019-4.9492-1.5019h-3.5508
		c0.2149-0.8072,0.502-1.5918,0.502-2.4571c0-74.4497-61.3858-123.1206-205.2637-162.7304
		c-44.3535-12.2261-54.6426-4.3804-58.0185-1.7803c-4.2725,3.2417-6.6221,8.0254-6.6221,13.4678
		c0,7.124,3.793,12.4052,7.1601,17.0771c2.9903,4.1738,5.586,7.7783,5.586,12.3784c0,20.3409-28.7647,26.8638-76.1533,35.1851
		c-55.0371,9.6709-123.5557,21.7129-123.5557,86.4023c0,0.9776,0.0586,1.9502,0.0674,2.9278
		c-4.3623,1.0625-7.6709,4.8149-7.6709,9.5136c0,103.8643,66.707,192.419,159.5205,225.1651h-119.292
		c-5.5098,0-9.9795,4.4746-9.9795,9.998c0,5.4961,4.4697,9.9707,9.9795,9.9707h422.4844c5.5146,0,9.9804-4.4746,9.9804-9.9707
		c0-5.5234-4.4658-9.998-9.9804-9.998H576.0737c56.5528-19.9414,103.4121-60.6055,131.3789-112.8535
		c9.46,2.6718,18.5254,4.0254,26.9805,4.0254c28.6035,0,50.5723-14.795,59.1533-41.7305
		C798.6616,532.0654,797.6753,516.5888,790.7261,503.1704z M485.3813,339.3188c0-11.0337-5.3935-18.5429-9.3388-24.0258
		c-0.7666-1.0625-1.753-2.4483-2.4746-3.5914c4.7119-0.6772,16.2832-0.3852,38.4531,5.7164
		c133.6074,36.7856,190.5898,79.6953,190.5898,143.4882c0,0.8653,0.2871,1.6499,0.502,2.4571H285.7349
		c-0.0088-0.8164-0.0538-1.6319-0.0538-2.4571c0-44.4878,44.3624-55.7275,107.0479-66.7382
		C438.2749,386.165,485.3813,377.8935,485.3813,339.3188z M774.5679,541.9013c-10.168,31.8321-40.4395,29.8321-58.3008,25.4922
		c10.957-25.4648,17.6191-53.1894,19.0449-82.2729c18.2109,5.7969,31.5986,15.4541,37.6777,27.2222
		C777.5093,521.0635,778.0288,531.0166,774.5679,541.9013z"/>
</g>
</svg>
