<?xml version="1.0" encoding="utf-8"?>
<!-- Generator: Adobe Illustrator 17.1.0, SVG Export Plug-In . SVG Version: 6.00 Build 0)  -->
<!DOCTYPE svg PUBLIC "-//W3C//DTD SVG 1.1//EN" "http://www.w3.org/Graphics/SVG/1.1/DTD/svg11.dtd">
<svg version="1.1" id="coffee-cup-17" xmlns="http://www.w3.org/2000/svg" xmlns:xlink="http://www.w3.org/1999/xlink" x="0px"
	 y="0px" viewBox="0 0 1009.9956 1010" enable-background="new 0 0 1009.9956 1010" xml:space="preserve">
<g>
	<path fill="#F4EDE9" d="M1009.9956,505.0049c0,278.9287-226.0752,504.9951-505,504.9951C226.1021,1010,0,783.9336,0,505.0049
		C0,226.0977,226.1021,0,504.9956,0C783.9204,0,1009.9956,226.0977,1009.9956,505.0049z"/>
	<g id="coffee-cup-17-coffee-cup-17">
		<path fill="#7A5742" d="M690.1831,478.9341l16.6328-57.9737c0.8788-3.0263,0.2695-6.268-1.623-8.7783
			c-1.8828-2.5107-4.8418-3.977-7.9707-3.977H296.1987c-3.1474,0-6.0971,1.4663-7.9892,3.977
			c-1.8877,2.5103-2.4883,5.752-1.6231,8.7783l99.3233,346.1158c1.2373,4.2773,5.1513,7.2539,9.6079,7.2539h202.3452
			c4.4746,0,8.3926-2.959,9.6211-7.2539l31.3652-109.2852h107.4024V478.9341H690.1831z M403.0586,754.3164l-93.5894-326.1113
			h374.4639l-93.584,326.1113H403.0586z M726.2378,637.7773h-81.6406l39.8476-138.8432h41.793V637.7773z"/>
		<path fill="#7A5742" d="M571.1421,335.71c-0.0801,16.2968-10.8047,26.0166-16.2383,27.3754
			c-5.3437,1.336-8.6172,6.774-7.2539,12.1319c1.1211,4.5459,5.2187,7.5723,9.6836,7.5723c0.8164,0,1.623-0.0987,2.4394-0.3052
			c15.3145-3.8374,31.2481-22.336,31.3829-46.7115c0-9.0161-5.1016-19.0449-14.3379-28.2402
			c-18.7754-18.8257-20.5957-27.7607-17.377-36.8218c5.1113-14.3911,15.2344-16.3188,29.9668-14.6421
			c2.9141,0.3047,5.0117,0.5469,7.3613-0.0449c5.3438-1.3584,8.5899-6.7925,7.2539-12.1543
			c-1.246-4.8423-5.8105-7.9536-10.6347-7.5053c-0.4746-0.0313-1.0664-0.1119-1.7754-0.188
			c-26.2363-2.8697-43.4336,6.4692-51.0195,27.8369c-8.1778,23.0264,5.7656,41.3179,22.0938,57.6777
			C568.9272,327.8955,571.1421,333.168,571.1421,335.71z"/>
		<path fill="#7A5742" d="M405.4258,335.7324c-0.0542,16.2837-10.7735,25.9942-16.2075,27.353
			c-5.3706,1.336-8.6255,6.774-7.2764,12.1187c1.1299,4.5591,5.2051,7.5855,9.6885,7.5855c0.7983,0,1.6186-0.0987,2.4301-0.3052
			c15.355-3.8282,31.2798-22.3491,31.3653-46.7115c0-9.0385-5.0708-19.0766-14.2886-28.2495
			c-18.8296-18.7983-20.6499-27.7382-17.4131-36.8125c5.1157-14.3911,15.2525-16.3188,29.9844-14.6421
			c2.9009,0.3179,5.0171,0.5469,7.3525-0.0542c5.3487-1.3584,8.5904-6.7963,7.2227-12.145
			c-1.2193-4.8423-5.8193-7.8906-10.6211-7.5053c-0.4614-0.0313-1.0625-0.1119-1.7661-0.188
			c-26.2007-2.8697-43.4077,6.4692-51.0244,27.8369c-8.1958,23.0708,5.7876,41.3403,22.1381,57.6777
			C403.2241,327.8735,405.4258,333.1455,405.4258,335.7324z"/>
		<path fill="#7A5742" d="M488.2681,335.7324c-0.0581,16.2837-10.751,25.9942-16.1983,27.353
			c-5.3618,1.336-8.6167,6.774-7.2671,12.1319c1.1294,4.5459,5.2183,7.5723,9.6885,7.5723c0.811,0,1.6226-0.0987,2.4434-0.3052
			c15.3325-3.8374,31.2446-22.3491,31.3335-46.7115c0-5.2456-1.8516-15.8798-14.2793-28.2626
			c-18.8389-18.7852-20.6368-27.7027-17.3726-36.7994c5.0972-14.3911,15.3013-16.2876,29.9399-14.6421
			c2.918,0.3047,5.0215,0.5469,7.3565-0.0449c5.3486-1.3452,8.6221-6.77,7.2588-12.1411c-1.2285-4.8555-5.8281-7.9668-10.625-7.5185
			c-0.4805-0.0313-1.086-0.1119-1.7852-0.188c-26.3481-2.8828-43.4209,6.4785-50.9839,27.8051
			c-8.2851,23.0801,5.7207,41.3721,22.0938,57.7095C486.0757,327.8643,488.2681,333.1323,488.2681,335.7324z"/>
		<path fill="#7A5742" d="M550.8511,481.3774c-21.9864,0-41.377,11.4102-52.5225,28.6265
			c-11.1455-17.2163-30.5356-28.6265-52.5308-28.6265c-34.4541,0-62.4882,28.0347-62.4882,62.5015
			c0,16.8398,6.6845,32.5938,18.852,44.5645c0.251,0.3046,0.5156,0.6093,0.8115,0.9238l88.2857,88.2578
			c1.9502,1.9551,4.5146,2.9238,7.0698,2.9238c2.5645,0,5.1157-0.9688,7.0659-2.9238l88.3081-88.2578
			c0.3047-0.3145,0.5645-0.6192,0.8067-0.9238c12.1679-11.8985,18.8301-27.6622,18.8301-44.5645
			C613.3394,509.4121,585.3003,481.3774,550.8511,481.3774z M456.2217,517.2129c4.2094,0.0625,7.6172,3.1113,7.7695,7.2539
			c0.1343,4.1152-3.1025,7.6035-7.2451,7.7559c-12.2842,0.4121-22.7842,13.3515-22.4302,23.2597
			c0.1392,4.1426-3.1025,7.6035-7.2358,7.7559c-0.0855,0-0.1841,0-0.2603,0c-4.0215,0-7.3525-3.2012-7.5093-7.2363
			C418.7187,538.6875,434.7104,517.9746,456.2217,517.2129z"/>
	</g>
</g>
</svg>
