<?xml version="1.0" encoding="utf-8"?>
<!-- Generator: Adobe Illustrator 17.1.0, SVG Export Plug-In . SVG Version: 6.00 Build 0)  -->
<!DOCTYPE svg PUBLIC "-//W3C//DTD SVG 1.1//EN" "http://www.w3.org/Graphics/SVG/1.1/DTD/svg11.dtd">
<svg version="1.1" id="coffee-pot" xmlns="http://www.w3.org/2000/svg" xmlns:xlink="http://www.w3.org/1999/xlink" x="0px" y="0px"
	 viewBox="0 0 1009.9956 1009.9951" enable-background="new 0 0 1009.9956 1009.9951" xml:space="preserve">
<g>
	<path fill="#F4EDE9" d="M1009.9956,504.9951c0,278.9248-226.0752,505-505,505C226.0757,1009.9951,0,783.9199,0,504.9951
		C0,226.0752,226.0757,0,504.9956,0C783.9204,0,1009.9956,226.0752,1009.9956,504.9951z"/>
	<g id="coffee-pot-coffee-pot">
		<path fill="#7A5742" d="M782.7905,383.9863c-22.6855-39.749-59.2245-61.2422-108.4062-63.8516
			c-0.2246-0.0175-1.4981-0.0986-1.7305-0.0986h-32.2891v-39.1748c0-5.7207-4.6445-10.3701-10.3652-10.3701H320.9917
			c-2.959,0-5.7744,1.2734-7.7383,3.4746c-1.9726,2.2012-2.8916,5.1514-2.5644,8.0791
			c3.5507,30.5537,27.5322,54.2031,57.9736,58.1484v24.878c-62.2686,44.165-99.332,115.3955-99.332,191.8496
			c0,69.6347,30.6211,135.2881,84.0214,180.1484c1.8741,1.5606,4.2237,2.4297,6.667,2.4297h288.9805
			c2.4297,0,4.7969-0.8691,6.6621-2.4297c53.3965-44.8603,84.0176-110.5137,84.0176-180.1484
			c0-67.9131-29.2402-131.751-79.3906-176.127l11.7285-0.0088c27.2402,1.6631,46.2402,12.5127,58.0586,33.208
			c14.0234,24.5596,19.5293,62.9454,16.4179,113.544c-0.1347,1.1748-0.2246,2.376-0.2246,3.6943
			c0,16.7588,13.6387,30.3789,30.3789,30.3789c15.0372,0,27.7696-11.0019,30.0293-25.7519
			c0.0899-0.4844,0.1797-0.9951,0.1973-1.5156C811.1694,470.0117,803.0366,419.4267,782.7905,383.9863z M334.1772,291.2178h285.4473
			v28.8994h-240.583c-0.0762,0-0.1523-0.045-0.251-0.045l-2.1162,0.045C357.5532,320.0722,340.938,308.2588,334.1772,291.2178z
			 M718.9663,556.9209c0,23.5371-3.8379,46.5635-11.1641,68.3164c-4.6621-1.8828-9.5937-2.8692-14.6777-2.8692
			c-9.8184,0-19.0723,3.5957-25.9941,10.1504c-6.9942,6.5996-16.3555,10.2217-26.3711,10.2217
			c-9.9981,0-19.3321-3.6221-26.3262-10.2217c-7.0566-6.6445-16.418-10.3115-26.3437-10.3115
			c-9.9083,0-19.2697,3.667-26.3262,10.3115c-6.9942,6.5723-16.3457,10.2217-26.3438,10.2217
			c-9.9892,0-19.3408-3.6221-26.3261-10.2041c-7.0567-6.6621-16.4131-10.3476-26.3438-10.3476
			c-9.9307,0-19.2783,3.6855-26.3262,10.33c-6.9892,6.5996-16.3506,10.2217-26.3437,10.2217
			c-9.9932,0-19.3408-3.6221-26.3262-10.2041c-7.0566-6.6621-16.4131-10.3476-26.3437-10.3476
			c-9.917,0-19.2647,3.6855-26.3262,10.33c-7.0117,6.5996-16.3731,10.2403-26.3301,10.2403c-3.2461,0-6.6308-0.4668-10.0742-1.3633
			l-8.1641-2.1699c-10.7197-25.7705-16.4716-53.6563-16.4716-82.3047c0-70.3789,34.4003-136.0147,92.1904-176.1807H626.771
			C684.5698,420.9062,718.9663,486.542,718.9663,556.9209z"/>
		<path fill="#7A5742" d="M445.9507,499.1221h-47.958c-5.7207,0-10.3701,4.6357-10.3701,10.3564
			c0,5.7207,4.6494,10.3564,10.3701,10.3564h47.958c5.7207,0,10.3564-4.6357,10.3564-10.3564
			C456.3071,503.7578,451.6714,499.1221,445.9507,499.1221z"/>
		<path fill="#7A5742" d="M445.9507,537.4814h-67.1514c-5.7207,0-10.3564,4.6446-10.3564,10.3653s4.6357,10.3476,10.3564,10.3476
			h67.1514c5.7207,0,10.3564-4.6269,10.3564-10.3476S451.6714,537.4814,445.9507,537.4814z"/>
		<path fill="#7A5742" d="M445.9507,460.7451h-67.1514c-5.7207,0-10.3564,4.6445-10.3564,10.3652s4.6357,10.3565,10.3564,10.3565
			h67.1514c5.7207,0,10.3564-4.6358,10.3564-10.3565S451.6714,460.7451,445.9507,460.7451z"/>
		<path fill="#7A5742" d="M445.9507,422.3769h-47.958c-5.7207,0-10.3701,4.6358-10.3701,10.3565
			c0,5.7207,4.6494,10.3652,10.3701,10.3652h47.958c5.7207,0,10.3564-4.6445,10.3564-10.3652
			C456.3071,427.0127,451.6714,422.3769,445.9507,422.3769z"/>
	</g>
</g>
</svg>
