<?xml version="1.0" encoding="utf-8"?>
<!-- Generator: Adobe Illustrator 17.1.0, SVG Export Plug-In . SVG Version: 6.00 Build 0)  -->
<!DOCTYPE svg PUBLIC "-//W3C//DTD SVG 1.1//EN" "http://www.w3.org/Graphics/SVG/1.1/DTD/svg11.dtd">
<svg version="1.1" id="coffee-maker" xmlns="http://www.w3.org/2000/svg" xmlns:xlink="http://www.w3.org/1999/xlink" x="0px"
	 y="0px" viewBox="0 0 1009.9956 1009.9951" enable-background="new 0 0 1009.9956 1009.9951" xml:space="preserve">
<g>
	<path fill="#F4EDE9" d="M1009.9956,504.9951c0,278.9248-226.0752,505-504.9863,505C226.0845,1009.9951,0,783.9199,0,504.9951
		C0,226.0752,226.0845,0,505.0093,0C783.9204,0,1009.9956,226.0752,1009.9956,504.9951z"/>
	<g id="coffee-maker-coffee-maker">
		<g>
			<g>
				<g>
					<rect x="486.6274" y="354.6699" fill="#7A5742" width="200.4805" height="59.5381"/>
					<path fill="#7A5742" d="M757.4956,459.0996H743.104h-55.9961v-32.5488H486.6274v209.581h200.4805v-29.0332h70.3877V459.0996z
						 M728.7036,578.333c-11.5752,0-30.2354,0-41.5957,0v-90.4551c9.6211,0,29.2041,0,41.5957,0
						C728.7036,507.0752,728.7036,559.1269,728.7036,578.333z"/>
					<path fill="#7A5742" d="M445.7397,317.9472h193.208v-57.5791H252.4956v304.2374h193.2441V317.9472z M373.769,486.1562h-53.4365
						v-12.3154h53.4365V486.1562z M373.769,440.9375h-53.4365v-12.3467h53.4365V440.9375z M373.769,395.6875h-53.4365v-12.293
						h53.4365V395.6875z M373.769,350.4912h-53.4365v-12.3379h53.4365V350.4912z"/>
					<path fill="#7A5742" d="M445.7397,671.4961v-86.3213H252.4956v164.4473h475.5088v-78.126H445.7397z M347.0395,708.5107
						c-24.9404,0-45.2275-20.292-45.2275-45.2363c0-24.9189,20.2871-45.2285,45.2275-45.2285
						c24.9229,0,45.2325,20.3096,45.2325,45.2285C392.272,688.2187,371.9624,708.5107,347.0395,708.5107z"/>
					<path fill="#7A5742" d="M347.0395,630.4023c-18.1435,0-32.8759,14.75-32.8759,32.8721
						c0,18.1484,14.7324,32.9072,32.8759,32.9072c18.1485,0,32.9034-14.7588,32.9034-32.9072
						C379.9429,645.1523,365.188,630.4023,347.0395,630.4023z"/>
				</g>
			</g>
		</g>
	</g>
</g>
</svg>
