<?xml version="1.0" encoding="utf-8"?>
<!-- Generator: Adobe Illustrator 17.1.0, SVG Export Plug-In . SVG Version: 6.00 Build 0)  -->
<!DOCTYPE svg PUBLIC "-//W3C//DTD SVG 1.1//EN" "http://www.w3.org/Graphics/SVG/1.1/DTD/svg11.dtd">
<svg version="1.1" id="coffee-cup-21" xmlns="http://www.w3.org/2000/svg" xmlns:xlink="http://www.w3.org/1999/xlink" x="0px"
	 y="0px" viewBox="0 0 1009.9956 1009.9951" enable-background="new 0 0 1009.9956 1009.9951" xml:space="preserve">
<g>
	<path fill="#F4EDE9" d="M1009.9956,504.9951c0,278.9248-226.0752,505-504.9956,505c-278.9019,0-505-226.0752-505-505
		C0,226.0752,226.0981,0,505,0C783.9204,0,1009.9956,226.0752,1009.9956,504.9951z"/>
	<g id="coffee-cup-21-coffee-cup-21">
		<path fill="#7A5742" d="M620.8804,386.416c-31.1055-31.1006-72.4414-48.2178-116.396-48.2178
			c-43.9546,0-85.2818,17.1172-116.3736,48.2178c-31.0913,31.0693-48.2089,72.3965-48.2089,116.3643
			c0,43.9726,17.1176,85.3085,48.2089,116.3867c31.0918,31.0781,72.419,48.2138,116.3736,48.2138
			c43.9546,0,85.2905-17.1357,116.396-48.2138c31.0957-31.0782,48.2226-72.4141,48.2226-116.3867
			C669.103,458.8125,651.9761,417.4853,620.8804,386.416z M430.0391,428.3349c-1.9371,1.9414-4.479,2.9053-7.021,2.9053
			c-2.5332,0-5.0752-0.9639-7.0162-2.9053c-3.8784-3.8691-3.8784-10.1591,0-14.0371
			c26.9175-26.9355,64.0665-40.0898,102.0132-35.9472c5.461,0.583,9.4063,5.4785,8.8145,10.9394
			c-0.5918,5.4336-5.3535,9.3701-10.9483,8.8008C484.0137,394.7012,452.6709,405.6855,430.0391,428.3349z M592.9936,428.3349
			c-1.9277,1.9414-4.4648,2.9053-7.0117,2.9053c-2.5371,0-5.084-0.9639-7.0117-2.9053
			c-8.0255-8.0117-17.207-14.6513-27.2851-19.7265c-4.9141-2.4658-6.8868-8.4375-4.4297-13.3379
			c2.457-4.8867,8.4199-6.8594,13.3242-4.4024c12.0156,6.0391,22.9277,13.9161,32.414,23.4297
			C596.8765,418.1758,596.8765,424.4658,592.9936,428.3349z"/>
		<path fill="#7A5742" d="M705.3101,667.4072c37.2109-45.873,57.7988-103.0976,57.7988-162.4121
			c0-142.3135-115.7774-258.1084-258.1089-258.1084c-142.3228,0-258.1089,115.7949-258.1089,258.1084
			c0,142.3359,115.7861,258.1133,258.1089,258.1133c52.4233,0,102.4663-15.6651,145.3979-45.0488
			c3.2461,3.3085,5.3086,5.3984,5.3086,5.416c7.0391,7.039,16.4356,10.9306,26.4336,10.9306
			c9.9981,0,19.3946-3.8916,26.4336-10.9306c14.5528-14.5703,14.5528-38.2696-0.0273-52.8399
			C708.5464,670.6357,707.3276,669.4072,705.3101,667.4072z M505,743.2558c-131.3657,0-238.2612-106.8818-238.2612-238.2607
			c0-131.3652,106.8955-238.252,238.2612-238.252c131.3745,0,238.2476,106.8868,238.2476,238.252
			c0,54.0957-18.5606,106.2812-52.0957,148.3525c-8.4375-8.3564-18.0411-17.8525-24.2911-23.9677
			c12.2129-15.6104,21.834-32.4414,28.9082-49.9707c0.0899-0.2598,0.1797-0.5293,0.2696-0.7891
			c2.2324-5.5859,4.25-11.2441,5.9629-16.9561c0.1074-0.3584,0.1699-0.7353,0.2773-1.1025
			c1.6504-5.6221,3.0938-11.2891,4.2598-16.9922c0.3672-1.793,0.5468-3.5957,0.8515-5.3887
			c0.7442-4.2949,1.5332-8.6074,2.0176-12.9296c0.3945-3.5059,0.4844-7.0391,0.6817-10.5538
			c0.1523-2.623,0.457-5.2548,0.5195-7.8955c0.0722-3.7031-0.1524-7.3974-0.2871-11.0869c-0.0801-2.4433-0.0176-4.9228-0.1973-7.375
			c-0.2324-3.6631-0.8066-7.3125-1.2637-10.9619c-0.3144-2.4521-0.4668-4.918-0.8613-7.3662
			c-0.7441-4.6982-1.8203-9.3477-2.9141-13.9834c-0.3046-1.3809-0.5019-2.7617-0.8515-4.1201
			c-1.166-4.5908-2.6543-9.1055-4.1426-13.6338c-0.457-1.3672-0.7891-2.7793-1.2734-4.1289
			c-1.0312-2.959-2.3672-5.833-3.5508-8.7334c-1.1563-2.8604-2.1875-5.7656-3.4785-8.5723
			c-0.6192-1.3496-1.4082-2.6318-2.0625-3.9677c-2.0801-4.295-4.1875-8.5899-6.5996-12.7549
			c-1.4258-2.4571-3.0938-4.7793-4.5995-7.169c-1.8926-2.9814-3.6407-5.9804-5.7032-8.8769
			c-7.3886-10.4102-15.8437-20.3184-25.3574-29.5c-4.4746-4.3174-9.1191-8.3213-13.8711-12.1455
			c-1.3457-1.0713-2.6992-2.0489-4.0625-3.0801c-3.6133-2.7617-7.2715-5.4248-11.0469-7.8994
			c-1.4433-0.9639-2.8867-1.8828-4.3847-2.8067c-4.0703-2.5732-8.2129-4.9765-12.4453-7.2314
			c-1.0762-0.5469-2.1075-1.1387-3.1739-1.6992c-47.2636-24.1114-102.0498-28.8994-152.3657-14.127
			c-0.0225,0.0137-0.0405,0.0225-0.0762,0.0225c-2.8154,0.834-5.5996,1.7529-8.4062,2.6943
			c-1.8516,0.6367-3.7031,1.2959-5.5459,1.9727c-2.1343,0.789-4.2725,1.5918-6.3887,2.4658
			c-4.1294,1.6767-8.227,3.4746-12.2173,5.4248c-0.417,0.1973-0.789,0.4307-1.1836,0.6367
			c-5.0971,2.5195-10.083,5.2188-14.9472,8.1777c-1.8428,1.1075-3.6089,2.4073-5.4156,3.5909
			c-3.4077,2.2148-6.8374,4.3847-10.1054,6.7968c-5.1065,3.793-10.0786,7.8233-14.8936,12.1407
			c-42.5513,38.292-66.7925,90.7871-68.3076,147.8281c-1.4888,57.0683,19.9014,110.7246,60.2646,151.0742
			c4.9317,4.9316,10.0606,9.5586,15.3643,13.8984c1.6768,1.3809,3.4746,2.5469,5.1958,3.8731
			c3.6943,2.834,7.375,5.7119,11.231,8.2676c2.4345,1.623,5.0122,3.0039,7.4961,4.5195c3.2456,1.9727,6.4467,4.0254,9.7646,5.8008
			c4.0034,2.125,8.146,3.9453,12.2661,5.8017c1.9058,0.8516,3.7481,1.8467,5.6538,2.6358
			c25.0078,10.3838,51.7056,15.7012,78.5562,15.7012c27.6894-0.0176,55.5039-5.6407,81.7578-17.0547
			c8.8594-3.793,17.4941-8.1953,25.8242-13.2168c0,0.0088,0.0176,0,0.0449,0.0088c5.918,6.2412,15.5118,16.1132,24.2188,25.0078
			C597.2983,729.501,552.2046,743.2558,505,743.2558z M694.5229,709.4521c-6.5722,6.5723-18.2382,6.5274-24.7207,0.045
			c0,0-30.4863-30.9532-43.3984-44.5645c-0.8789-0.9413-1.8652-1.7393-2.8965-2.4745c-0.332-0.2422-0.6992-0.4395-1.0762-0.6543
			c-0.6992-0.4669-1.4257-0.8789-2.1875-1.2197c-0.4218-0.1973-0.8339-0.3409-1.246-0.502
			c-0.7891-0.2959-1.5782-0.5654-2.3947-0.7627c-0.3945-0.0801-0.789-0.1699-1.1836-0.2422
			c-0.959-0.1699-1.9277-0.2597-2.914-0.2949c-0.1973,0-0.3946-0.0547-0.5918-0.0547c-0.0899,0-0.1348,0.0274-0.1973,0.0274
			c-1.6855,0.0175-3.3535,0.2597-4.9766,0.6992c-0.2871,0.0625-0.5644,0.1797-0.8789,0.251
			c-1.5957,0.5019-3.1738,1.1298-4.6894,2.0537c-4.1153,2.5195-8.3301,4.7968-12.5801,6.9668
			c-1.7129,0.8789-3.4883,1.6679-5.2187,2.4746c-2.4297,1.1386-4.8868,2.2597-7.3438,3.291
			c-2.3398,0.959-4.707,1.9101-7.1016,2.7891c-1.6582,0.6269-3.3535,1.2011-5.039,1.7568
			c-2.9766,1.0049-5.9805,2.0176-9.0293,2.8691c-0.1973,0.0537-0.4121,0.0987-0.6094,0.1534
			c-16.1309,4.4736-32.8809,6.7871-49.8057,6.7871c-18.5429,0-36.6508-2.7168-53.9116-7.9082
			c-0.4931-0.1622-0.9731-0.3594-1.4795-0.5118c-4.7524-1.4609-9.4331-3.1562-14.0464-5.0117
			c-1.6767-0.6816-3.331-1.4258-4.9765-2.1523c-3.4429-1.5059-6.8369-3.1026-10.168-4.8145
			c-1.9321-0.9961-3.8599-2.0176-5.7563-3.0761c-3.0801-1.7129-6.0796-3.542-9.0386-5.4336
			c-1.8872-1.1836-3.7705-2.3497-5.6133-3.6231c-3.1113-2.1338-6.124-4.4199-9.1186-6.7695
			c-1.5113-1.1836-3.0894-2.3047-4.5821-3.5508c-4.4028-3.667-8.7109-7.5137-12.8178-11.6299
			c-36.4761-36.458-55.8082-84.9404-54.4454-136.5166c1.3453-51.5264,23.2774-98.9599,61.7305-133.5889
			c4.3311-3.8916,8.8325-7.5322,13.4233-10.9394c3.1788-2.3535,6.5098-4.4834,9.8453-6.6172
			c1.3808-0.9014,2.7168-1.8965,4.1201-2.7393c3.8691-2.3671,7.8232-4.497,11.8135-6.5458c2.4751-1.2598,5.017-2.4209,7.5366-3.5596
			c1.4258-0.6592,2.8291-1.3047,4.2637-1.9102c3.1918-1.3584,6.4111-2.6269,9.7016-3.7881
			c0.5249-0.1972,1.0625-0.3857,1.6006-0.5693c19.5923-6.8057,40.4575-10.3926,61.8071-10.3926
			c24.2456,0,47.7476,4.5371,69.5093,13.1543c0.4395,0.1612,0.8965,0.3584,1.3359,0.5332c4.5997,1.874,9.1192,3.959,13.5489,6.1826
			c1.0312,0.5245,2.08,1.0401,3.084,1.5694c3.8652,2.0351,7.6132,4.2588,11.3339,6.5498c1.2559,0.789,2.5196,1.5381,3.7754,2.3447
			c3.5235,2.3272,6.9668,4.8467,10.3379,7.4336c1.1837,0.8965,2.4121,1.708,3.5781,2.6494
			c4.4297,3.5283,8.7247,7.2676,12.8399,11.2442c68.9805,66.6132,76.3691,173.5712,17.1621,248.7832
			c-5.2363,6.6357-5.4512,15.6377-0.9414,22.3359c0.0723,0.0635,0.0898,0.1523,0.1348,0.2335
			c0.3945,0.5469,0.8789,1.0488,1.3359,1.5781c0.332,0.3672,0.5918,0.7617,0.9687,1.1113c0,0.0186,0,0.0186,0,0.0274
			c12.8575,12.6161,42.1875,41.7578,42.1875,41.7578C701.3374,691.501,701.3374,702.6103,694.5229,709.4521z"/>
	</g>
</g>
</svg>
