<?xml version="1.0" encoding="utf-8"?>
<!-- Generator: Adobe Illustrator 17.1.0, SVG Export Plug-In . SVG Version: 6.00 Build 0)  -->
<!DOCTYPE svg PUBLIC "-//W3C//DTD SVG 1.1//EN" "http://www.w3.org/Graphics/SVG/1.1/DTD/svg11.dtd">
<svg version="1.1" id="coffee-cup-5" xmlns="http://www.w3.org/2000/svg" xmlns:xlink="http://www.w3.org/1999/xlink" x="0px"
	 y="0px" viewBox="0 0 1009.9956 1009.9951" enable-background="new 0 0 1009.9956 1009.9951" xml:space="preserve">
<g>
	<path fill="#F4EDE9" d="M1009.9956,504.9951c0,278.9248-226.0752,505-505,505C226.0757,1009.9951,0,783.9199,0,504.9951
		C0,226.0976,226.0757,0,504.9956,0C783.9204,0,1009.9956,226.0976,1009.9956,504.9951z"/>
	<g id="coffee-cup-5-coffee-cup-5">
		<g id="coffee-cup-5-coffee-cup">
			<path fill-rule="evenodd" clip-rule="evenodd" fill="#7A5742" d="M679.6831,637.2803
				c16.1133-0.5479,28.998-13.7461,28.998-29.9942c0-16.2295-12.8847-29.4375-28.998-29.9844v-29.5175
				c32.4141,0.5468,58.498,26.9531,58.498,59.5019c0,32.5488-26.0839,58.9736-58.498,59.5205V637.2803z M657.8315,585.6855
				c-1.3359,11.2354-3.7207,22.1387-7.1015,32.6026c4.3847,11.1367,15.2344,19.0185,27.9219,19.0185
				c0.3495,0,0.7089-0.0088,1.0312-0.0263v29.5263l-1.0312,0.0088c-16.2383,0-30.9434-6.4824-41.6856-17.0185
				c-29.6348,52.7959-86.1602,88.4834-150.9932,88.4834c-92.4326,0-167.9404-72.4776-172.8271-163.6866v-48.2939h345.6269v24.8642
				c6.2227-2.1962,12.9122-3.4072,19.879-3.4072l1.0312,0.0274v29.5175c-0.3223-0.0175-0.6816-0.0175-1.0312-0.0175
				C670.564,577.2842,663.2202,580.4853,657.8315,585.6855z"/>
			<g>
				<path fill-rule="evenodd" clip-rule="evenodd" fill="#7A5742" d="M718.7417,709.7656
					c-10.957,31.7598-106.8281,56.6065-223.4795,56.6065c-116.624,0-212.4727-24.8467-223.4526-56.6065H718.7417z"/>
				<rect x="375.8765" y="756.3115" fill-rule="evenodd" clip-rule="evenodd" fill="#7A5742" width="238.7988" height="18.0137"/>
			</g>
		</g>
		<path id="coffee-cup-5-nose-steam" fill="#7A5742" d="M381.8794,425.959c-4.6221-12.1006,10.3476-25.3174,22.3808-37.9961
			c50.6749-39.126,66.7833-62.1162,77.7227-79.3994c34.5166-71.9346-25.8867-72.67-25.8867-72.67
			c32.1992-3.1025,54.0732,26.0616,51.7734,49.6573c-4.6269,35.0908-36.2344,69.0517-51.7734,96.3418
			c-11.5264,29.5673,32.8135,13.5664,48.0029,13.5664c15.252,0,23.9141,29.3252,22.1836,45.3261
			c-3.1836,27.2539-16.8174,56.1358-22.3584,66.9405c4.0752-9.0118,2.8692-16.3868,3.3936-28.2539
			c-13.2569-41.4483-48.3477-42.587-63.8916-45.4473C397.3784,434.0244,389.9272,432.8496,381.8794,425.959z"/>
	</g>
</g>
</svg>
