<?xml version="1.0" encoding="utf-8"?>
<!-- Generator: Adobe Illustrator 17.1.0, SVG Export Plug-In . SVG Version: 6.00 Build 0)  -->
<!DOCTYPE svg PUBLIC "-//W3C//DTD SVG 1.1//EN" "http://www.w3.org/Graphics/SVG/1.1/DTD/svg11.dtd">
<svg version="1.1" id="coffee-cup-14" xmlns="http://www.w3.org/2000/svg" xmlns:xlink="http://www.w3.org/1999/xlink" x="0px"
	 y="0px" viewBox="0 0 1009.9956 1009.9951" enable-background="new 0 0 1009.9956 1009.9951" xml:space="preserve">
<g>
	<path fill="#F4EDE9" d="M1009.9956,504.9951c0,278.9062-226.0752,505-505,505C226.0845,1009.9951,0,783.9013,0,504.9951
		C0,226.084,226.0845,0,504.9956,0C783.9204,0,1009.9956,226.084,1009.9956,504.9951z"/>
	<path id="coffee-cup-14-coffee-cup-14" fill="#7A5742" d="M735.9311,436.1181h-15.7812c0.0801-4.4072,0.1973-8.7919,0.1973-13.2841
		c0-4.9766-4.0625-9.0069-9.0391-9.0069h-81.3086l53.9785-47.3213c12.8947-11.289,21.7442-25.582,25.5996-41.3632
		c2.5918-10.6163,1.9278-17.4131,1.5782-19.6143c-2.8243-29.6123-24.7207-51.0693-52.1133-51.0693
		c-15.2793,0-29.1602,6.6845-38.7364,18.081c-9.7558-11.2842-24.0839-18.081-39.5244-18.081
		c-27.3935,0-49.2627,21.457-52.1591,51.0693c-0.2422,1.4883-0.5293,5.25,0.0625,10.6973
		c-9.7462,3.4297-18.3409,9.5537-24.9581,17.8164c-10.7871-13.0596-26.9716-20.9502-44.3847-20.9502
		c-30.1416,0-54.2481,23.6894-57.418,56.373c-0.3408,2.2324-1.1162,9.8633,1.7666,21.6319
		c1.9277,7.9668,5.1738,15.5615,9.3701,22.7304H295.1811c-4.9628,0-9.0156,4.0303-9.0156,9.0069
		c0,169.1552,59.417,277.1582,84.0528,314.6572h-72.2618c-4.999,0-9.0293,4.0342-9.0293,9.0195
		c0,4.9766,4.0303,9.0205,9.0293,9.0205h89.6885h231.1904h89.711c4.9765,0,9.0117-4.0439,9.0117-9.0205
		c0-4.9853-4.0352-9.0195-9.0117-9.0195h-72.2793c11.5664-17.6016,30.7461-50.7422,47.8906-98.373h51.7734
		c30.4415,0,55.2344-24.7929,55.2344-55.2617v-92.4726C791.1655,460.9062,766.3726,436.1181,735.9311,436.1181z M419.7144,372.3701
		c0,0,0,0,0,0.0088c0.04-0.3272,0.1074-0.6231,0.1298-0.9326c1.8604-20.045,16.0323-40.3184,39.4981-40.3184
		c15.6465,0,29.8857,9.3164,36.2158,23.7617c1.4482,3.2549,4.7031,5.3662,8.2676,5.3662h0.0088c3.582,0,6.8144-2.125,8.2627-5.4111
		c5.4785-12.5713,15.7636-20.8027,28.164-23.0351c0.4844-0.0899,0.924-0.2198,1.4082-0.2735
		c1.793-0.2558,3.6133-0.4082,5.4785-0.4082c23.4922,0,37.6778,20.2734,39.6055,41.0762c0.0088,0.0537,0.8067,5.2812-1.4619,14.5976
		c-3.3447,13.5801-11.0381,26.0166-22.2197,36.0323c-0.1875,0.1748-0.3399,0.3632-0.5283,0.5293l-58.7764,51.5263l-59.8115-51.5088
		c-0.211-0.1611-0.3545-0.372-0.5518-0.5468c-11.1992-10.083-18.8926-22.5108-22.2012-36.0323
		C418.9429,377.5752,419.7144,372.3701,419.7144,372.3701z M546.4214,308.4199c0,0,0,0,0,0.0225
		c0.0625-0.3047,0.1074-0.6143,0.1347-0.919c1.5958-17.4043,13.8711-35.0234,34.2256-35.0234
		c13.5928,0,25.9131,8.043,31.3467,20.5107c1.4258,3.291,4.6719,5.416,8.2676,5.416c3.5684,0,6.8144-2.125,8.2676-5.416
		c5.6035-12.8398,16.9648-20.5107,30.3789-20.5107c20.3535,0,32.6113,17.6103,34.2969,35.7588c0,0.04,0.6816,4.5683-1.2735,12.6113
		c-2.9765,12.1455-9.8809,23.2324-19.9863,32.0693l-51.7461,45.3711l-15.7813-13.6025c-0.1435-0.1299-0.332-0.1524-0.4755-0.2734
		c1.2197-7.9131,0.7802-13.1944,0.502-14.9698c-3.1377-32.6836-27.2402-56.373-57.4307-56.373c-0.2246,0-0.4394,0.0312-0.664,0.0312
		C546.2602,310.1865,546.4302,308.4199,546.4214,308.4199z M593.4155,413.8271c1.9727-3.3759,3.8106-6.7968,5.2902-10.3476
		l12.0068,10.3476H593.4155z M773.1245,583.8564c0,20.5157-16.6777,37.2295-37.1934,37.2295h-45.6132
		c14.4179-44.8154,26.3438-100.6592,29.2578-166.9316h16.3554c20.5157,0,37.1934,16.7051,37.1934,37.2295V583.8564z"/>
</g>
</svg>
