<?xml version="1.0" encoding="utf-8"?>
<!-- Generator: Adobe Illustrator 17.1.0, SVG Export Plug-In . SVG Version: 6.00 Build 0)  -->
<!DOCTYPE svg PUBLIC "-//W3C//DTD SVG 1.1//EN" "http://www.w3.org/Graphics/SVG/1.1/DTD/svg11.dtd">
<svg version="1.1" id="coffee-cup-11" xmlns="http://www.w3.org/2000/svg" xmlns:xlink="http://www.w3.org/1999/xlink" x="0px"
	 y="0px" viewBox="0 0 1009.9956 1009.9951" enable-background="new 0 0 1009.9956 1009.9951" xml:space="preserve">
<g>
	<path fill="#F4EDE9" d="M1009.9956,504.9951c0,278.9062-226.0752,505-505,505C226.0757,1009.9951,0,783.9013,0,504.9951
		C0,226.0928,226.0757,0,504.9956,0C783.9204,0,1009.9956,226.0928,1009.9956,504.9951z"/>
	<g id="coffee-cup-11-coffee-cup-11">
		<path fill="#7A5742" d="M741.4272,391.0654c10.7784,6.2764,17.6827,17.2695,18.9024,30.1953
			c1.7031,17.6865-7.335,36.6822-24.8291,52.0781c-20.8389,18.2959-57.1895,35.5528-90.2315,48.2442
			c-4.0439,12.1142-9.7646,25.9228-18.0136,39.6953c41.9638-13.6913,98.1845-37.4531,128.8681-64.501
			c25.1602-22.0893,38.0186-50.7285,35.3106-78.5654c-2.2149-22.9902-12.9297-42.7578-32.4678-54.1494
			c-29.9394-17.458-62.0937-9.4644-82.3945,0.3091c-1.6944,10.3564-7.0391,40.9194-7.0391,40.9194
			C669.9185,404.9863,710.0269,372.751,741.4272,391.0654z"/>
		<path fill="#7A5742" d="M412.9175,595.7373h174.5263c43.9629-30.9258,56.7852-82.0537,62.1475-103.542
			c7.0479-28.0161,22.166-120.8076,26.5059-147.6533c-14.3379,0-337.459,0-351.8194,0
			c4.3535,26.8457,19.4893,119.6372,26.4785,147.6357C356.1362,513.6836,368.9497,564.8115,412.9175,595.7373z"/>
		<g>
			<path fill="#7A5742" d="M663.4624,643.1347c74.4228-13.7451,124.2324-34.5839,150.1465-47.6035c-44.2324,0-572.958,0-617.2217,0
				c25.918,13.0196,75.7275,33.8584,150.1416,47.6035H663.4624z"/>
			<path fill="#7A5742" d="M661.6333,637.1631c-21.4033,0-291.8945,0-313.2891,0c6.7071,10.4101,15.8037,24.5234,18.2383,28.2812
				c6.8369,0,269.9893,0,276.8125,0C645.8433,661.6865,654.9263,647.5732,661.6333,637.1631z"/>
		</g>
	</g>
</g>
</svg>
