<?xml version="1.0" encoding="utf-8"?>
<!-- Generator: Adobe Illustrator 17.1.0, SVG Export Plug-In . SVG Version: 6.00 Build 0)  -->
<!DOCTYPE svg PUBLIC "-//W3C//DTD SVG 1.1//EN" "http://www.w3.org/Graphics/SVG/1.1/DTD/svg11.dtd">
<svg version="1.1" id="coffee-cup-7" xmlns="http://www.w3.org/2000/svg" xmlns:xlink="http://www.w3.org/1999/xlink" x="0px"
	 y="0px" viewBox="0 0 1009.9956 1009.9951" enable-background="new 0 0 1009.9956 1009.9951" xml:space="preserve">
<g>
	<path fill="#F4EDE9" d="M1009.9956,504.9951c0,278.9062-226.0752,505-504.9956,505c-278.9019,0-505-226.0938-505-505
		C0,226.0928,226.0981,0,505,0C783.9204,0,1009.9956,226.0928,1009.9956,504.9951z"/>
	<g id="coffee-cup-7-coffee-cup-7">
		<path fill="#7A5742" d="M697.3472,365.6987c0,0,7.2539,22.6987,9.541,34.3511c3.4609,1.4209,7.4961,1.4302,11.6562,1.3183
			c26.918,2.6182,55.6914,18.9732,64.0039,47.5992c10.1504,31.1274-6.6621,63.8022-31.7148,84.7749
			c-19.3594,14.8935-42.457,24.6494-66.0391,25.3662l-0.6992,0.6816c-9.1641-0.332-17.6016-0.9326-25.6719-2.1787
			c-8.6172,8.3926-16.1484,16.6865-25.6172,23.582l-305.3808-0.1523c-61.5244-48.0255-90.8721-123.2012-68.7295-199.4131
			l5.7519-15.9292H697.3472z M710.3491,433.3789c-1.4081,33.562-9.8808,64.4653-27.3301,91.9971l-0.0273,1.4082
			c24.8555-1.7129,49.3437-14.087,64.0039-37.0503c6.707-10.7867,9.2891-27.42,1.5781-38.5742
			C739.3198,438.2256,724.9194,434.0019,710.3491,433.3789z"/>
		<polygon fill="#7A5742" points="684.1128,644.2822 282.4487,644.2822 224.4478,586.959 682.0054,586.9951 741.2749,587.2373 		"/>
	</g>
</g>
</svg>
