<?xml version="1.0" encoding="utf-8"?>
<!-- Generator: Adobe Illustrator 17.1.0, SVG Export Plug-In . SVG Version: 6.00 Build 0)  -->
<!DOCTYPE svg PUBLIC "-//W3C//DTD SVG 1.1//EN" "http://www.w3.org/Graphics/SVG/1.1/DTD/svg11.dtd">
<svg version="1.1" id="coffee-cup-6" xmlns="http://www.w3.org/2000/svg" xmlns:xlink="http://www.w3.org/1999/xlink" x="0px"
	 y="0px" viewBox="0 0 1009.9956 1009.9951" enable-background="new 0 0 1009.9956 1009.9951" xml:space="preserve">
<g>
	<path fill="#F4EDE9" d="M1009.9956,505c0,278.9199-226.0752,504.9951-505,504.9951C226.0757,1009.9951,0,783.9199,0,505
		C0,226.0976,226.0757,0,504.9956,0C783.9204,0,1009.9956,226.0976,1009.9956,505z"/>
	<path id="coffee-cup-6-coffee-cup-6" fill="#7A5742" d="M663.2114,399.6914c0,0,4.8693-27.7744,6.4024-37.1939
		c18.4443-8.8901,47.6933-16.1401,74.8798-0.2827c17.7901,10.3565,27.4922,28.3213,29.5274,49.2539
		c2.4658,25.2906-9.2266,51.3296-32.0733,71.4102c-27.9316,24.5771-79.0322,46.2002-117.1582,58.6279
		c7.4874-12.5078,12.67-25.0879,16.3731-36.0635c30.0205-11.54,63.125-27.2363,82.0088-43.8779
		c15.916-14.0195,24.1289-31.2578,22.5869-47.3574c-1.1475-11.7285-7.3975-21.7168-17.1982-27.4375
		C700.0288,370.1055,663.5884,399.4043,663.2114,399.6914z M421.2925,572.8545h158.6816
		c39.9286-28.1016,51.6211-74.6201,56.4903-94.145c6.3662-25.4786,20.1298-109.8052,24.0839-134.2486
		c-13.0371,0-306.8105,0-319.8525,0c3.9453,24.4434,17.7314,108.77,24.0977,134.2486
		C369.6714,498.2344,381.3325,544.7529,421.2925,572.8545z M224.4438,584.6904c23.5372,11.8359,68.8321,30.791,136.4942,43.2637
		h288.124c67.6533-12.4727,112.9434-31.4278,136.4902-43.2637C745.3188,584.6904,264.686,584.6904,224.4438,584.6904z
		 M379.1626,665.5517c6.2139,0,245.4385,0,251.6523,0c2.2422-3.4707,10.5-16.2929,16.6065-25.7617c-19.4756,0-265.376,0-284.8291,0
		C368.6851,649.2588,376.9477,662.081,379.1626,665.5517z"/>
</g>
</svg>
