<?xml version="1.0" encoding="utf-8"?>
<!-- Generator: Adobe Illustrator 17.1.0, SVG Export Plug-In . SVG Version: 6.00 Build 0)  -->
<!DOCTYPE svg PUBLIC "-//W3C//DTD SVG 1.1//EN" "http://www.w3.org/Graphics/SVG/1.1/DTD/svg11.dtd">
<svg version="1.1" id="coffee-cup" xmlns="http://www.w3.org/2000/svg" xmlns:xlink="http://www.w3.org/1999/xlink" x="0px" y="0px"
	 viewBox="0 0 1009.9956 1009.9951" enable-background="new 0 0 1009.9956 1009.9951" xml:space="preserve">
<g>
	<path fill="#F4EDE9" d="M1009.9956,504.9863c0,278.9336-226.0752,505.0088-504.9956,505.0088
		c-278.9067,0-505-226.0752-505-505.0088C0,226.084,226.0933,0,505,0C783.9204,0,1009.9956,226.084,1009.9956,504.9863z"/>
	<path fill="#7A5742" d="M765.0454,370.3301h-10.7685h-10.6172h-23.9493c1.2637-16.835,2.044-34.7325,2.044-54.0821v-10.6123
		H269.3306v10.6123c0,134.4991,33.8086,204.8604,58.4892,256.2119c15.4942,32.2891,27.7471,57.7901,27.7471,88.7784v10.5986v27.9316
		v4.5723h10.603h10.603h237.544h10.5801h10.6259v-4.5723v-27.9316v-10.5986c0-19.1524,4.6895-36.2159,11.9434-54.0772h96.1934
		h10.6172h10.7685c23.6904,0,42.9502-19.2695,42.9502-42.9502V413.2578C807.9956,389.5947,788.7358,370.3301,765.0454,370.3301z
		 M786.7895,564.2109c0,11.9883-9.747,21.7442-21.7441,21.7442h-0.1611V391.5137h0.1611c11.9971,0,21.7441,9.7734,21.7441,21.7441
		V564.2109z M290.604,326.8418h409.8818c-0.2871,20.0586-1.3896,38.3594-3.04,55.4228c-66.0117,0-337.79,0-403.8252,0
		C291.9663,365.2012,290.8726,346.9004,290.604,326.8418z M656.854,585.9551c2.0713-4.3848,4.1787-8.8594,6.4111-13.4952
		c19.6104-40.7714,44.8692-93.6337,54.4991-180.9462h25.8955v194.4414H656.854z"/>
</g>
</svg>
