<?xml version="1.0" encoding="utf-8"?>
<!-- Generator: Adobe Illustrator 17.1.0, SVG Export Plug-In . SVG Version: 6.00 Build 0)  -->
<!DOCTYPE svg PUBLIC "-//W3C//DTD SVG 1.1//EN" "http://www.w3.org/Graphics/SVG/1.1/DTD/svg11.dtd">
<svg version="1.1" id="coffee-cup-3" xmlns="http://www.w3.org/2000/svg" xmlns:xlink="http://www.w3.org/1999/xlink" x="0px"
	 y="0px" viewBox="0 0 1009.9956 1009.9951" enable-background="new 0 0 1009.9956 1009.9951" xml:space="preserve">
<g>
	<path fill="#F4EDE9" d="M1009.9956,505.0039c0,278.916-226.0752,504.9912-505,504.9912C226.0845,1009.9951,0,783.9199,0,505.0039
		C0,226.0976,226.0845,0,504.9956,0C783.9204,0,1009.9956,226.0976,1009.9956,505.0039z"/>
	<g id="coffee-cup-3-coffee-cup-3">
		<g>
			<path fill="#7A5742" d="M734.855,372.289c-13.2891,0-25.7168,3.6094-36.4766,9.8321c0.5469-6.2588,0.9688-12.5352,0.9688-18.9375
				H269.3306c0,118.7451,96.2519,215.0058,214.997,215.0058c77.8575,0,145.7969-41.5146,183.5557-103.4521
				c11.3154,25.7881,37.0771,43.8603,66.9717,43.8603c40.332,0,73.1406-32.8359,73.1406-73.1543
				C807.9956,405.1025,775.187,372.289,734.855,372.289z M734.855,492.3164c-25.8692,0-46.8867-21.0313-46.8867-46.8731
				c0-25.8505,21.0175-46.8818,46.8867-46.8818c25.8418,0,46.8769,21.0313,46.8769,46.8818
				C781.7319,471.2851,760.6968,492.3164,734.855,492.3164z"/>
		</g>
		<path fill="#7A5742" d="M674.3032,594.123H313.2446c-17.4267,0-31.5625,11.792-31.5625,26.3711
			c0,14.5352,14.1358,26.3262,31.5625,26.3262h361.0586c17.4492,0,31.5625-11.791,31.5625-26.3262
			C705.8657,605.915,691.7524,594.123,674.3032,594.123L674.3032,594.123z"/>
	</g>
</g>
</svg>
