<?xml version="1.0" encoding="utf-8"?>
<!-- Generator: Adobe Illustrator 17.1.0, SVG Export Plug-In . SVG Version: 6.00 Build 0)  -->
<!DOCTYPE svg PUBLIC "-//W3C//DTD SVG 1.1//EN" "http://www.w3.org/Graphics/SVG/1.1/DTD/svg11.dtd">
<svg version="1.1" id="coffee-cup-12" xmlns="http://www.w3.org/2000/svg" xmlns:xlink="http://www.w3.org/1999/xlink" x="0px"
	 y="0px" viewBox="0 0 1009.9956 1009.9951" enable-background="new 0 0 1009.9956 1009.9951" xml:space="preserve">
<g>
	<path fill="#F4EDE9" d="M1009.9956,504.9951c0,278.9062-226.0752,505-505,505C226.0757,1009.9951,0,783.9013,0,504.9951
		C0,226.0928,226.0757,0,504.9956,0C783.9204,0,1009.9956,226.0928,1009.9956,504.9951z"/>
	<g id="coffee-cup-12-coffee-cup-12">
		<path fill="#7A5742" d="M685.1528,303.3271H319.6245c-3.1162,0-5.6445,2.5284-5.6445,5.6485v258.0781
			c0,45.4512,36.9873,82.412,82.457,82.412h180.8652c45.4248,0,82.4034-36.9609,82.4034-82.412v-62.897h25.4471
			c55.3692,0,100.3994-45.0571,100.3994-100.4438C785.5522,348.3618,740.522,303.3271,685.1528,303.3271z M723.0278,403.7129
			c0,15.5254-9.3877,28.8769-22.748,34.75c-4.7256,1.7666-9.792,2.8647-15.127,2.8647h-25.4471V365.793h25.4471
			C706.0454,365.793,723.0278,382.8027,723.0278,403.7129z M685.1528,354.1587c6.1779,0,12.042,1.3227,17.3506,3.6538
			c-5.416-2.0576-11.1992-3.3174-17.3506-3.3174h-25.4471v-0.3364H685.1528z"/>
		<path fill="#7A5742" d="M739.0249,670.8955H287.2144c-9.8633,0-17.8838,8.0342-17.8838,17.8887
			c0,9.8632,8.0205,17.8789,17.8838,17.8789h451.8105c9.8535,0,17.8877-8.0157,17.8877-17.8789
			C756.9126,678.9297,748.8784,670.8955,739.0249,670.8955z"/>
	</g>
</g>
</svg>
