<?xml version="1.0" encoding="utf-8"?>
<!-- Generator: Adobe Illustrator 17.1.0, SVG Export Plug-In . SVG Version: 6.00 Build 0)  -->
<!DOCTYPE svg PUBLIC "-//W3C//DTD SVG 1.1//EN" "http://www.w3.org/Graphics/SVG/1.1/DTD/svg11.dtd">
<svg version="1.1" id="coffee-cup-19" xmlns="http://www.w3.org/2000/svg" xmlns:xlink="http://www.w3.org/1999/xlink" x="0px"
	 y="0px" viewBox="0 0 1009.9956 1009.9951" enable-background="new 0 0 1009.9956 1009.9951" xml:space="preserve">
<g>
	<path fill="#F4EDE9" d="M1009.9956,504.9951c0,278.9248-226.0752,505-505,505C226.0845,1009.9951,0,783.9199,0,504.9951
		C0,226.0752,226.0845,0,504.9956,0C783.9204,0,1009.9956,226.0752,1009.9956,504.9951z"/>
	<g id="coffee-cup-19-coffee-cup-19">
		<path fill="#7A5742" d="M388.896,459.7451c-0.8652-8.1641-8.1865-14.0146-16.3867-13.2031
			c-8.1641,0.8652-14.0908,8.1953-13.2032,16.3593c7.9356,74.5079,37.0635,148.7608,84.2188,214.6836
			c2.9189,4.0616,7.4873,6.2315,12.1318,6.2315c2.9727,0,6.0166-0.9053,8.6397-2.7881c6.6709-4.7704,8.2178-14.042,3.4521-20.7402
			C423.5474,598.5166,396.2935,529.1689,388.896,459.7451z"/>
		<path fill="#7A5742" d="M372.7065,396.5351c0.6905,0.085,1.3496,0.1162,2.0313,0.1162c7.3164,0,13.6963-5.4111,14.7139-12.8623
			c2.1074-15.4853,5.0976-33.0195,13.9296-44.8916c4.8916-6.5634,3.5284-15.8886-3.08-20.789
			c-6.5723-4.9092-15.8887-3.5508-20.8116,3.0713c-12.414,16.6689-16.7089,38.0136-19.5293,58.5966
			C358.8667,387.918,364.5786,395.414,372.7065,396.5351z"/>
		<path fill="#7A5742" d="M741.7056,381.1347h-40.5656c-1.999-44.5683-9.1543-79.6503-16.7763-96.5927
			c-1.6944-3.7705-6.8233-15.2119-18.7315-15.2119H336.6968c-11.8809,0-17.041,11.4414-18.7178,15.2119
			c-23.8467,52.9521-43.2773,282.4306,85.8955,428.1826c15.7275,17.7538,38.1309,27.9404,61.417,27.9404h71.7412
			c23.3047,0,45.7031-10.1865,61.4131-27.9404c44.1787-49.8633,70.9619-109.4736,86.1338-168.4824h57.126
			c19.2958,0,34.9969-15.71,34.9969-35.0059v-93.0957C776.7026,396.8398,761.0015,381.1347,741.7056,381.1347z M576.1909,692.9892
			c-10.088,11.3877-24.3633,17.9151-39.1582,17.9151h-54.7002h-17.041c-14.7949,0-29.0518-6.5274-39.1484-17.9151
			c-125.8731-142.04-96.5567-357.1943-82.1387-393.9033h314.3389C672.7436,335.8174,702.0102,550.9941,576.1909,692.9892z
			 M746.9507,509.2363c0,2.8516-2.4024,5.2363-5.2451,5.2363h-50.4287c7.0927-36.2832,10.0878-71.5937,10.3837-103.582h40.045
			c2.8427,0,5.2451,2.3984,5.2451,5.25V509.2363z"/>
	</g>
</g>
</svg>
