<?xml version="1.0" encoding="utf-8"?>
<!-- Generator: Adobe Illustrator 17.1.0, SVG Export Plug-In . SVG Version: 6.00 Build 0)  -->
<!DOCTYPE svg PUBLIC "-//W3C//DTD SVG 1.1//EN" "http://www.w3.org/Graphics/SVG/1.1/DTD/svg11.dtd">
<svg version="1.1" id="coffee-cup-2" xmlns="http://www.w3.org/2000/svg" xmlns:xlink="http://www.w3.org/1999/xlink" x="0px"
	 y="0px" viewBox="0 0 1009.9956 1009.9951" enable-background="new 0 0 1009.9956 1009.9951" xml:space="preserve">
<g>
	<path fill="#F4EDE9" d="M1009.9956,505c0,278.9199-226.0937,504.9951-505,504.9951C226.0845,1009.9951,0,783.9199,0,505
		C0,226.0976,226.0845,0,504.9956,0C783.9019,0,1009.9956,226.0976,1009.9956,505z"/>
	<g id="coffee-cup-2-coffee-cup-2">
		<path fill="#7A5742" d="M673.6128,721.6553H312.5542c-17.4268,0-31.5625,11.7734-31.5625,26.3437
			c0,14.5625,14.1357,26.3262,31.5625,26.3262h361.0586c17.4492,0,31.5537-11.7637,31.5537-26.3262
			C705.1665,733.4286,691.062,721.6553,673.6128,721.6553L673.6128,721.6553z"/>
		<path fill="#7A5742" d="M665.48,522.5068c-8.4737,0-16.4981,1.7578-23.8692,4.7168c1.2198-7.6308-0.5381-15.4726-5.3349-21.686
			c-5.3623-6.9805-13.6562-11.0694-22.4522-11.0694H344.1255c-8.7334,0-16.9961,4.0352-22.3672,10.9483
			c-5.3574,6.895-7.2539,15.9067-5.084,24.3716l34.9024,136.8574c3.2011,12.5351,14.4814,21.3495,27.4423,21.3495h198.5791
			c12.8311,0,24.0938-8.6797,27.375-21.0898l10.9932-41.5157c11.6475,14.5977,29.3926,24.2012,49.5137,24.2012
			c35.0234,0,63.5195-28.5137,63.5195-63.537C728.9995,551.0205,700.5034,522.5068,665.48,522.5068L665.48,522.5068z
			 M665.48,621.2471c-19.4307,0-35.2383-15.7813-35.2383-35.1934c0-19.4219,15.8076-35.2031,35.2383-35.2031
			c19.4043,0,35.1943,15.7812,35.1943,35.2031C700.6743,605.4658,684.8843,621.2471,665.48,621.2471L665.48,621.2471z"/>
		<path fill="#7A5742" d="M485.3813,382.5874c-39.2919,53.7324,17.4893,90.7734,17.4893,90.7734
			c-30.6074-21.7436-8.626-61.3808,2.2236-77.4136c12.7237-18.7939,27.1602-40.0893,28.3077-69.7109
			c1.5244-37.8433-35.4092-50.8091-35.4092-50.8091c4.9765,2.9278,13.0957,13.293,11.6299,49.8677
			C508.7974,346.5322,500.1938,362.2915,485.3813,382.5874L485.3813,382.5874z M448.0845,473.3608
			c-36.7364-26.0928-10.334-73.7007,2.6855-92.9751c15.2881-22.5644,32.6162-48.1328,34.0195-83.6943
			c1.8067-45.4605-42.5556-61.0225-42.5556-61.0225c5.9717,3.5196,15.7275,15.9654,13.9746,59.857
			c-1.0088,25.5278-11.3115,44.4521-29.1328,68.8276C379.9204,428.8906,448.0845,473.3608,448.0845,473.3608L448.0845,473.3608z
			 M533.8413,403.6723c-30.1728,41.251,13.3867,69.6885,13.3867,69.6885c-23.456-16.6909-6.6172-47.1015,1.7578-59.4214
			c9.7286-14.4189,20.8291-30.7695,21.708-53.4907c1.1573-29.0517-27.1865-38.9824-27.1865-38.9824
			c3.8195,2.2373,10.0695,10.1948,8.9219,38.2383C551.7925,376.0014,545.2017,388.1015,533.8413,403.6723L533.8413,403.6723z"/>
	</g>
</g>
</svg>
