<?xml version="1.0" encoding="utf-8"?>
<!-- Generator: Adobe Illustrator 17.1.0, SVG Export Plug-In . SVG Version: 6.00 Build 0)  -->
<!DOCTYPE svg PUBLIC "-//W3C//DTD SVG 1.1//EN" "http://www.w3.org/Graphics/SVG/1.1/DTD/svg11.dtd">
<svg version="1.1" id="coffee-cup-20" xmlns="http://www.w3.org/2000/svg" xmlns:xlink="http://www.w3.org/1999/xlink" x="0px"
	 y="0px" viewBox="0 0 1009.9956 1009.9951" enable-background="new 0 0 1009.9956 1009.9951" xml:space="preserve">
<g>
	<path fill="#F4EDE9" d="M1009.9956,504.9951c0,278.9248-226.0752,505-505,505C226.0845,1009.9951,0,783.9199,0,504.9951
		C0,226.0752,226.0845,0,504.9956,0C783.9204,0,1009.9956,226.0752,1009.9956,504.9951z"/>
	<g id="coffee-cup-20-coffee-cup-20">
		<path fill="#7A5742" d="M505.0093,482.126c-29.4375,0-53.3741,23.9453-53.3741,53.3554c0,29.4287,23.9366,53.3604,53.3741,53.3604
			c29.415,0,53.3467-23.9317,53.3467-53.3604C558.356,506.0713,534.4243,482.126,505.0093,482.126z"/>
		<path fill="#7A5742" d="M677.7642,296.6426h-30.4864v-50.8184c0-5.6133-4.5371-10.1592-10.1504-10.1592H372.8726
			c-5.6133,0-10.1592,4.5459-10.1592,10.1592v50.8184H332.227c-5.622,0-10.1728,4.5459-10.1728,10.1679v60.9776
			c0,5.622,4.5508,10.1679,10.1728,10.1679h8.3702l39.7177,387.2412c0.5245,5.1826,4.8955,9.1279,10.1055,9.1279h223.6094
			c5.1914,0,9.5586-3.9453,10.0781-9.1279l39.7402-387.2412h13.9161c5.6318,0,10.1689-4.5459,10.1689-10.1679v-60.9776
			C687.9331,301.1885,683.396,296.6426,677.7642,296.6426z M383.0317,255.9922h243.9278v40.6504H383.0317V255.9922z
			 M505.0093,609.1689c-40.6367,0-73.6924-33.0508-73.6924-73.6875c0-40.6318,33.0557-73.6738,73.6924-73.6738
			c40.6318,0,73.665,33.042,73.665,73.6738C578.6743,576.1181,545.6411,609.1689,505.0093,609.1689z M667.6147,357.6289H342.3862
			v-40.6592h30.4864h264.2548h30.4873V357.6289z"/>
	</g>
</g>
</svg>
