<?xml version="1.0" encoding="utf-8"?>
<!-- Generator: Adobe Illustrator 17.1.0, SVG Export Plug-In . SVG Version: 6.00 Build 0)  -->
<!DOCTYPE svg PUBLIC "-//W3C//DTD SVG 1.1//EN" "http://www.w3.org/Graphics/SVG/1.1/DTD/svg11.dtd">
<svg version="1.1" id="milk" xmlns="http://www.w3.org/2000/svg" xmlns:xlink="http://www.w3.org/1999/xlink" x="0px" y="0px"
	 viewBox="0 0 1009.9956 1009.9951" enable-background="new 0 0 1009.9956 1009.9951" xml:space="preserve">
<g>
	<path fill="#F4EDE9" d="M1009.9956,504.9951c0,278.9248-226.0752,505-505,505C226.0845,1009.9951,0,783.9199,0,504.9951
		C0,226.0752,226.0845,0,504.9956,0C783.9204,0,1009.9956,226.0752,1009.9956,504.9951z"/>
	<g id="milk-milk">
		<path fill="#7A5742" d="M481.8081,309.7246v-20.5381c10.7822-3.748,18.583-13.9072,18.583-25.9492
			c0-15.2119-12.3603-27.5723-27.5498-27.5723h-92.9971c-15.2119,0-27.5771,12.3604-27.5771,27.5723
			c0,12.042,7.8056,22.2012,18.5879,25.9492v20.5381c0,18.5117-13.4365,60.0986-25.2949,96.79
			c-11.3516,35.1582-21.17,65.5147-21.17,79.8838v251.0654c0,20.3271,16.5254,36.8613,36.8662,36.8613h130.1729
			c20.3184,0,36.8613-16.5342,36.8613-36.8613V486.3984c0-14.3691-9.791-44.7256-21.1699-79.8838
			C495.2622,369.8232,481.8081,328.2363,481.8081,309.7246z M510.3442,644.7939h-165.748h-2.2549V513.9707h165.7656h2.2373V644.7939
			z M379.8442,253.6162h92.9971c5.2813,0,9.5986,4.3174,9.5986,9.6211c0,5.3037-4.3173,9.6211-9.5986,9.6211h-92.9971
			c-5.3037,0-9.6259-4.3174-9.6259-9.6211C370.2183,257.9336,374.5405,253.6162,379.8442,253.6162z M388.8286,309.7246v-18.915
			h75.0283v18.915c0,10.334,3.1563,25.3799,7.8457,42.623h-90.7197C385.6724,335.1045,388.8286,320.0586,388.8286,309.7246z"/>
		<polygon fill="#7A5742" points="372.106,547.5244 372.106,565.4756 443.7358,565.4756 480.5796,565.4756 480.5796,547.5244 
			466.1567,547.5244 		"/>
		<polygon fill="#7A5742" points="372.106,603.4668 396.2397,603.4668 415.4819,603.4668 415.4819,588.0615 415.4819,585.4971 
			372.106,585.4971 		"/>
		<rect x="448.0308" y="585.4971" fill="#7A5742" width="32.5488" height="17.9697"/>
		<path fill="#7A5742" d="M797.4507,655.8047c-0.0449-0.6905-0.1348-1.3623-0.1973-2.0352
			c-0.412-5.2724-1.1387-10.5537-2.1699-15.8349c-0.0625-0.3145-0.1074-0.6104-0.1699-0.9151
			c-2.502-12.4639-6.7071-24.8017-13.0469-36.458l-0.7441-1.4531h-0.1348c-6.7246-11.961-15.4668-23.2051-26.9356-32.9248
			c-14.6601-12.4102-20.291-23.5196-22.4609-30.2178c9.4688-4.0352,16.1035-13.4316,16.1035-24.3535
			c0-14.584-11.8535-26.4424-26.4512-26.4424H616.4058c-14.5704,0-26.4336,11.8584-26.4336,26.4424
			c0,10.2402,5.9005,19.0449,14.4277,23.4297c-1.9102,6.6269-7.2813,18.122-22.668,31.1416
			c-46.6894,39.5244-51.3965,103.2949-36.0097,145.8056c14.0234,38.7364,43.9902,62.04,80.2148,62.3359h42.8965h41.0762
			c32.9257-0.2598,60.5429-19.7441,75.8398-52.418h0.3672l2.2871-5.5957c0.2773-0.7266,0.457-1.4883,0.7441-2.2148
			c0.2774-0.7266,0.6543-1.3633,0.9141-2.1075c1.0312-2.8242,1.9551-5.7656,2.7891-8.7783
			c0.1523-0.5381,0.2597-1.1025,0.4121-1.6494c0.9414-3.5332,1.6855-7.1016,2.3496-10.7246
			c0.1973-1.0938,0.4121-2.1875,0.5918-3.3086c0.6367-4.0439,1.0937-8.1143,1.3535-12.2305
			c0.0723-0.7978,0.0723-1.623,0.1172-2.4297C797.98,667.2822,797.8276,661.5615,797.4507,655.8047z M695.312,703.9463
			c-4.6719,0-8.4824-3.8106-8.4824-8.4912v-69.8858c0-4.6894,3.8105-8.5097,8.4824-8.5097h74.5215h0.0625
			c0.3594,0.8164,0.6191,1.6679,0.9512,2.4931c0.8066,1.9639,1.5957,3.9365,2.2949,5.9541
			c0.5742,1.6319,1.0762,3.2813,1.5781,4.9492c0.3945,1.2911,0.7442,2.5821,1.0762,3.9004
			c0.5469,2.0801,1.0762,4.1514,1.5156,6.2676c0.0625,0.3047,0.1074,0.6191,0.1699,0.9238
			c3.0489,15.2344,3.2012,31.0606,0.4395,46.1778c-0.2422,1.3183-0.457,2.6455-0.7442,3.9453
			c-0.2871,1.3359-0.6093,2.6543-0.9687,3.9814c-0.5645,2.2774-1.2012,4.5459-1.9277,6.7608
			c-0.17,0.5019-0.2598,1.0312-0.4395,1.5332h-0.0625H695.312z M729.7436,511.6123c0,4.6894-3.8105,8.4922-8.5,8.4922h-65.125
			h-39.7128c-4.6719,0-8.4825-3.8028-8.4825-8.4922c0-4.6758,3.8106-8.4912,8.4825-8.4912h104.8378
			C725.9331,503.1211,729.7436,506.9365,729.7436,511.6123z M622.2163,538.0732h91.334
			c2.0351,8.2129,7.4687,20.9551,21.5019,34.9698H600.7144C614.7378,559.0283,620.1811,546.2861,622.2163,538.0732z"/>
	</g>
</g>
</svg>
