<?xml version="1.0" encoding="utf-8"?>
<!-- Generator: Adobe Illustrator 17.1.0, SVG Export Plug-In . SVG Version: 6.00 Build 0)  -->
<!DOCTYPE svg PUBLIC "-//W3C//DTD SVG 1.1//EN" "http://www.w3.org/Graphics/SVG/1.1/DTD/svg11.dtd">
<svg version="1.1" id="sugar" xmlns="http://www.w3.org/2000/svg" xmlns:xlink="http://www.w3.org/1999/xlink" x="0px" y="0px"
	 viewBox="0 0 1009.9956 1009.9951" enable-background="new 0 0 1009.9956 1009.9951" xml:space="preserve">
<g>
	<path fill="#F4EDE9" d="M1009.9956,504.9951c0,278.9248-226.0752,505-505,505C226.0845,1009.9951,0,783.9199,0,504.9951
		C0,226.0752,226.0845,0,504.9956,0C783.9204,0,1009.9956,226.0752,1009.9956,504.9951z"/>
	<path id="sugar-sugar" fill="#7A5742" d="M643.4136,556.123c-27.0703-40.8076-30.8096-123.5244-31.2852-139.7002l-0.2148,0.0137
		v-58.709c0-11.9345-10.5176-16.3867-19.8164-18.8926c-5.6846-1.9326-28.0655-9.1865-54.0508-13.2392v-46.7969
		c0-2.5508-1.0488-5.0166-2.9141-6.7744l-47.3974-45.0166c-2.708-2.5781-6.6934-3.291-10.128-1.8115
		c-3.4297,1.4795-5.6621,4.8554-5.6621,8.581v91.7823c-24.7344,3.8691-46.2275,10.621-53.6338,13.1542
		c-16.7275,3.5821-20.2422,12.3155-20.2422,19.0137v58.709l-0.2109-0.0137c-0.4795,16.1758-4.2051,98.8926-31.2754,139.7002
		c-50.2353,75.7227-46.5996,147.9668,10.2129,203.3985c11.4639,11.163,29.3701,26.0302,52.4502,26.0302h151.5
		c23.0439,0,40.9502-14.8398,52.4551-26.0302C689.9946,704.0898,693.6265,631.8457,643.4136,556.123z M490.6401,255.5664
		l28.7022,27.2539v40.5156c-4.7881-0.3721-9.5899-0.5781-14.3555-0.5781c-4.7705,0-9.5586,0.206-14.3467,0.5781V255.5664z
		 M593.4507,417.7412c0.5654,17.7715,3.2197,64.1963,15.3154,105.1064c-32.2803-8.6884-72.917,4.0889-96.7139,11.6026l-3.2861,1.041
		c-27.0166,8.4726-48.4961,12.7676-63.8691,12.7676c-11.8135,0-36.8887-2.3936-51.2217-3.9717
		c18.6504-44.6182,22.2012-105.5508,22.8467-126.5459H593.4507z M385.7847,661.7138c0.3271-5.1464,4.7968-9.0292,9.9394-8.7246
		c5.1377,0.3321,9.0606,4.7618,8.7334,9.9082c-0.2734,4.8243-1.3584,47.1016,44.21,52.9747
		c5.1152,0.6367,8.7422,5.3349,8.0742,10.455c-0.6006,4.7256-4.6221,8.1416-9.2715,8.1416c-0.3808,0-0.7891-0.0175-1.1924-0.0625
		C395.1411,727.8252,384.3364,683.9687,385.7847,661.7138z"/>
</g>
</svg>
