<?xml version="1.0" encoding="utf-8"?>
<!-- Generator: Adobe Illustrator 21.0.0, SVG Export Plug-In . SVG Version: 6.00 Build 0)  -->
<svg version="1.1" id="Layer_1" xmlns="http://www.w3.org/2000/svg" xmlns:xlink="http://www.w3.org/1999/xlink" x="0px" y="0px"
	 viewBox="0 0 63 76" style="enable-background:new 0 0 63 76;" xml:space="preserve">
<style type="text/css">
	.st0{fill:none;stroke:#979797;}
	.st1{fill:#D8D8D8;}
	.st2{fill:url(#Path_3_);}
</style>
<title>Group 4 Copy 4</title>
<desc>Created with Sketch.</desc>
<g id="Page-1">
	<g id="Select-Coffee" transform="translate(-67.000000, -448.000000)">
		<g id="Group-4-Copy-4" transform="translate(67.000000, 448.000000)">
			<g id="Group-3" transform="translate(7.000000, 0.000000)">
				<g id="noun_227919_cc" transform="translate(0.000000, 22.000000)">
					<g id="Group">
						<path id="Combined-Shape" class="st0" d="M39.3,0.8h5.8c3.2,0,5.8,2.7,5.8,5.9V17c0,3.3-2.6,5.9-5.8,5.9h-4.4v7.7
							c0,2.7-1.2,5.6-2.9,8.3c-1.7,2.7-4,5.1-6.6,6.5c-6.5,3.6-15.3,3.6-21.8,0C4.4,42.6,0,36.8,0,30.6V2.2c0-0.8,0.7-1.5,1.5-1.5
							H39.3z"/>
					</g>
				</g>
				<path id="Path" class="st1" d="M23.7,0.2c0-0.1-0.3-0.3-0.4-0.2c-3.4,2.5-2.6,6.1-0.4,8.7c1.7,2,3,3,3,6.1
					c0,0.3,0.5,0.3,0.6,0.2C30.7,7.9,21.3,7.5,23.7,0.2z"/>
				<path id="Path_1_" class="st1" d="M18.7,0.2c0-0.1-0.3-0.3-0.4-0.2c-3.4,2.5-2.6,6.1-0.4,8.7c1.7,2,3,3,3,6.1
					c0,0.3,0.5,0.3,0.6,0.2C25.7,7.9,16.3,7.5,18.7,0.2z"/>
				
					<linearGradient id="Path_3_" gradientUnits="userSpaceOnUse" x1="-272.665" y1="433.3824" x2="-272.665" y2="432.3824" gradientTransform="matrix(34.9714 0 0 -25.3349 9555.8857 11021.415)">
					<stop  offset="0" style="stop-color:#000000"/>
					<stop  offset="1" style="stop-color:#432A14"/>
				</linearGradient>
				<path id="Path_2_" class="st2" d="M37.9,41.7v10.9c0,1.8-0.9,4.3-2.4,6.6c-1.5,2.3-3.6,4.4-5.6,5.5c-5.5,3-13.5,3-19,0
					c-4.2-2.3-8-7.5-8-12.2V41.7H37.9z"/>
				<path id="Shape" class="st0" d="M41,26h4.4c1.6,0,2.9,1.3,2.9,3v10.3c0,1.7-1.3,3-2.9,3H41V26z"/>
			</g>
		</g>
	</g>
</g>
</svg>
